<svg width="286" height="68" viewBox="0 0 286 68" fill="none" xmlns="http://www.w3.org/2000/svg">
<path d="M53.126 18.7367C52.556 18.7367 52.176 19.1167 52.176 19.6867V20.6366C52.176 21.2066 52.556 21.5866 53.126 21.5866C53.6959 21.5866 54.0759 21.2066 54.0759 20.6366V19.6867C54.0759 19.2117 53.6959 18.7367 53.126 18.7367Z" fill="white"/>
<path d="M49.4211 18.7367C48.8511 18.7367 48.4711 19.1167 48.4711 19.6867V20.6366C48.4711 21.2066 48.8511 21.5866 49.4211 21.5866C49.9911 21.5866 50.3711 21.2066 50.3711 20.6366V19.6867C50.3711 19.2117 49.8961 18.7367 49.4211 18.7367Z" fill="white"/>
<path d="M45.6211 18.7367C45.0511 18.7367 44.6711 19.1167 44.6711 19.6867V20.6366C44.6711 21.2066 45.0511 21.5866 45.6211 21.5866C46.1911 21.5866 46.5711 21.2066 46.5711 20.6366V19.6867C46.5711 19.2117 46.0961 18.7367 45.6211 18.7367Z" fill="white"/>
<path d="M53.126 22.8216C52.556 22.8216 52.176 23.2016 52.176 23.7716V24.7215C52.176 25.2915 52.556 25.6715 53.126 25.6715C53.6959 25.6715 54.0759 25.2915 54.0759 24.7215V23.7716C54.0759 23.2016 53.6959 22.8216 53.126 22.8216Z" fill="white"/>
<path d="M49.4211 22.8216C48.8511 22.8216 48.4711 23.2016 48.4711 23.7716V24.7215C48.4711 25.2915 48.8511 25.6715 49.4211 25.6715C49.9911 25.6715 50.3711 25.2915 50.3711 24.7215V23.7716C50.3711 23.2016 49.8961 22.8216 49.4211 22.8216Z" fill="white"/>
<path d="M45.6211 22.8216C45.0511 22.8216 44.6711 23.2016 44.6711 23.7716V24.7215C44.6711 25.2915 45.0511 25.6715 45.6211 25.6715C46.1911 25.6715 46.5711 25.2915 46.5711 24.7215V23.7716C46.5711 23.2016 46.0961 22.8216 45.6211 22.8216Z" fill="white"/>
<path d="M53.126 26.9065C52.556 26.9065 52.176 27.2865 52.176 27.8565V28.8065C52.176 29.3765 52.556 29.7564 53.126 29.7564C53.6959 29.7564 54.0759 29.3765 54.0759 28.8065V27.8565C54.0759 27.2865 53.6959 26.9065 53.126 26.9065Z" fill="white"/>
<path d="M49.4211 26.9065C48.8511 26.9065 48.4711 27.2865 48.4711 27.8565V28.8065C48.4711 29.3765 48.8511 29.7564 49.4211 29.7564C49.9911 29.7564 50.3711 29.3765 50.3711 28.8065V27.8565C50.3711 27.2865 49.8961 26.9065 49.4211 26.9065Z" fill="white"/>
<path d="M45.6211 26.9065C45.0511 26.9065 44.6711 27.2865 44.6711 27.8565V28.8065C44.6711 29.3765 45.0511 29.7564 45.6211 29.7564C46.1911 29.7564 46.5711 29.3765 46.5711 28.8065V27.8565C46.5711 27.2865 46.0961 26.9065 45.6211 26.9065Z" fill="white"/>
<path d="M53.126 31.1814C52.556 31.1814 52.176 31.5614 52.176 32.1314V33.0814C52.176 33.6514 52.556 34.0314 53.126 34.0314C53.6959 34.0314 54.0759 33.6514 54.0759 33.0814V32.1314C54.0759 31.6564 53.6959 31.1814 53.126 31.1814Z" fill="white"/>
<path d="M49.4211 31.1814C48.8511 31.1814 48.4711 31.5614 48.4711 32.1314V33.0814C48.4711 33.6514 48.8511 34.0314 49.4211 34.0314C49.9911 34.0314 50.3711 33.6514 50.3711 33.0814V32.1314C50.3711 31.6564 49.8961 31.1814 49.4211 31.1814Z" fill="white"/>
<path d="M45.6211 31.1814C45.0511 31.1814 44.6711 31.5614 44.6711 32.1314V33.0814C44.6711 33.6514 45.0511 34.0314 45.6211 34.0314C46.1911 34.0314 46.5711 33.6514 46.5711 33.0814V32.1314C46.5711 31.6564 46.0961 31.1814 45.6211 31.1814Z" fill="white"/>
<path d="M53.126 35.2663C52.556 35.2663 52.176 35.6463 52.176 36.2163V37.5463C52.176 38.1163 52.556 38.4963 53.126 38.4963C53.6959 38.4963 54.0759 38.1163 54.0759 37.5463V36.2163C54.0759 35.6463 53.6959 35.2663 53.126 35.2663Z" fill="white"/>
<path d="M49.4211 35.2663C48.8511 35.2663 48.4711 35.6463 48.4711 36.2163V37.5463C48.4711 38.1163 48.8511 38.4963 49.4211 38.4963C49.9911 38.4963 50.3711 38.1163 50.3711 37.5463V36.2163C50.3711 35.6463 49.8961 35.2663 49.4211 35.2663Z" fill="white"/>
<path d="M45.6211 35.2663C45.0511 35.2663 44.6711 35.6463 44.6711 36.2163V37.5463C44.6711 38.1163 45.0511 38.4963 45.6211 38.4963C46.1911 38.4963 46.5711 38.1163 46.5711 37.5463V36.2163C46.5711 35.6463 46.0961 35.2663 45.6211 35.2663Z" fill="white"/>
<path d="M53.126 39.5413C52.556 39.5413 52.176 39.9212 52.176 40.4912V41.4412C52.176 42.0112 52.556 42.3912 53.126 42.3912C53.6959 42.3912 54.0759 42.0112 54.0759 41.4412V40.4912C54.0759 40.0162 53.6959 39.5413 53.126 39.5413Z" fill="white"/>
<path d="M49.4211 39.5413C48.8511 39.5413 48.4711 39.9212 48.4711 40.4912V41.4412C48.4711 42.0112 48.8511 42.3912 49.4211 42.3912C49.9911 42.3912 50.3711 42.0112 50.3711 41.4412V40.4912C50.3711 40.0162 49.8961 39.5413 49.4211 39.5413Z" fill="white"/>
<path d="M45.6211 39.5413C45.0511 39.5413 44.6711 39.9212 44.6711 40.4912V41.4412C44.6711 42.0112 45.0511 42.3912 45.6211 42.3912C46.1911 42.3912 46.5711 42.0112 46.5711 41.4412V40.4912C46.5711 40.0162 46.0961 39.5413 45.6211 39.5413Z" fill="white"/>
<path d="M53.126 43.6262C52.556 43.6262 52.176 44.0062 52.176 44.5762V45.9061C52.176 46.4761 52.556 46.8561 53.126 46.8561C53.6959 46.8561 54.0759 46.4761 54.0759 45.9061V44.5762C54.0759 44.1012 53.6959 43.6262 53.126 43.6262Z" fill="white"/>
<path d="M49.4211 43.6262C48.8511 43.6262 48.4711 44.0062 48.4711 44.5762V45.9061C48.4711 46.4761 48.8511 46.8561 49.4211 46.8561C49.9911 46.8561 50.3711 46.4761 50.3711 45.9061V44.5762C50.3711 44.1012 49.8961 43.6262 49.4211 43.6262Z" fill="white"/>
<path d="M45.6211 43.6262C45.0511 43.6262 44.6711 44.0062 44.6711 44.5762V45.9061C44.6711 46.4761 45.0511 46.8561 45.6211 46.8561C46.1911 46.8561 46.5711 46.4761 46.5711 45.9061V44.5762C46.5711 44.1012 46.0961 43.6262 45.6211 43.6262Z" fill="white"/>
<path d="M53.126 47.9961C52.556 47.9961 52.176 48.3761 52.176 48.9461V49.8961C52.176 50.4661 52.556 50.8461 53.126 50.8461C53.6959 50.8461 54.0759 50.4661 54.0759 49.8961V48.9461C54.0759 48.3761 53.6959 47.9961 53.126 47.9961Z" fill="white"/>
<path d="M49.4211 47.9961C48.8511 47.9961 48.4711 48.3761 48.4711 48.9461V49.8961C48.4711 50.4661 48.8511 50.8461 49.4211 50.8461C49.9911 50.8461 50.3711 50.4661 50.3711 49.8961V48.9461C50.3711 48.3761 49.8961 47.9961 49.4211 47.9961Z" fill="white"/>
<path d="M45.6211 47.9961C45.0511 47.9961 44.6711 48.3761 44.6711 48.9461V49.8961C44.6711 50.4661 45.0511 50.8461 45.6211 50.8461C46.1911 50.8461 46.5711 50.4661 46.5711 49.8961V48.9461C46.5711 48.3761 46.0961 47.9961 45.6211 47.9961Z" fill="white"/>
<path d="M53.126 51.986C52.556 51.986 52.176 52.366 52.176 52.936V54.266C52.176 54.8359 52.556 55.2159 53.126 55.2159C53.6959 55.2159 54.0759 54.8359 54.0759 54.266V52.936C54.0759 52.461 53.6959 51.986 53.126 51.986Z" fill="white"/>
<path d="M49.4211 51.986C48.8511 51.986 48.4711 52.366 48.4711 52.936V54.266C48.4711 54.8359 48.8511 55.2159 49.4211 55.2159C49.9911 55.2159 50.3711 54.8359 50.3711 54.266V52.936C50.3711 52.461 49.8961 51.986 49.4211 51.986Z" fill="white"/>
<path d="M45.6211 51.986C45.0511 51.986 44.6711 52.366 44.6711 52.936V54.266C44.6711 54.8359 45.0511 55.2159 45.6211 55.2159C46.1911 55.2159 46.5711 54.8359 46.5711 54.266V52.936C46.5711 52.461 46.0961 51.986 45.6211 51.986Z" fill="white"/>
<path d="M53.126 56.3559C52.556 56.3559 52.176 56.7359 52.176 57.3059V58.2559C52.176 58.8259 52.556 59.2059 53.126 59.2059C53.6959 59.2059 54.0759 58.8259 54.0759 58.2559V57.3059C54.0759 56.7359 53.6959 56.3559 53.126 56.3559Z" fill="white"/>
<path d="M49.4211 56.3559C48.8511 56.3559 48.4711 56.7359 48.4711 57.3059V58.2559C48.4711 58.8259 48.8511 59.2059 49.4211 59.2059C49.9911 59.2059 50.3711 58.8259 50.3711 58.2559V57.3059C50.3711 56.7359 49.8961 56.3559 49.4211 56.3559Z" fill="white"/>
<path d="M45.6211 56.3559C45.0511 56.3559 44.6711 56.7359 44.6711 57.3059V58.2559C44.6711 58.8259 45.0511 59.2059 45.6211 59.2059C46.1911 59.2059 46.5711 58.8259 46.5711 58.2559V57.3059C46.5711 56.7359 46.0961 56.3559 45.6211 56.3559Z" fill="white"/>
<path d="M53.126 60.4409C52.556 60.4409 52.176 60.8208 52.176 61.3908V62.3408C52.176 62.9108 52.556 63.2908 53.126 63.2908C53.6959 63.2908 54.0759 62.9108 54.0759 62.3408V61.3908C54.0759 60.8208 53.6959 60.4409 53.126 60.4409Z" fill="white"/>
<path d="M49.4211 60.4409C48.8511 60.4409 48.4711 60.8208 48.4711 61.3908V62.3408C48.4711 62.9108 48.8511 63.2908 49.4211 63.2908C49.9911 63.2908 50.3711 62.9108 50.3711 62.3408V61.3908C50.3711 60.8208 49.8961 60.4409 49.4211 60.4409Z" fill="white"/>
<path d="M45.6211 60.4409C45.0511 60.4409 44.6711 60.8208 44.6711 61.3908V62.3408C44.6711 62.9108 45.0511 63.2908 45.6211 63.2908C46.1911 63.2908 46.5711 62.9108 46.5711 62.3408V61.3908C46.5711 60.8208 46.0961 60.4409 45.6211 60.4409Z" fill="white"/>
<path d="M59.2059 65.8558H58.1609V15.8867C58.1609 15.3167 57.7809 14.9367 57.2109 14.9367H56.8309C56.6409 13.1318 55.5959 11.7068 54.361 10.9468C54.266 8.95185 52.936 7.05189 51.511 7.05189H50.561V1.63699C50.561 1.067 50.181 0.687012 49.611 0.687012C49.0411 0.687012 48.6611 1.067 48.6611 1.63699V7.05189H47.7111C46.2861 7.05189 44.9561 8.85685 44.8611 10.9468C43.6262 11.7068 42.5812 13.1318 42.3912 14.9367H42.0112C41.4412 14.9367 41.0612 15.3167 41.0612 15.8867V65.8558H38.9713V27.8565C38.9713 27.2865 38.5913 26.9065 38.0213 26.9065H37.6413C37.4513 25.1015 36.4063 23.6766 35.1713 22.9166C35.0763 20.9216 33.7464 19.0217 32.3214 19.0217H31.3714V13.6068C31.3714 13.0368 30.9914 12.6568 30.4214 12.6568C29.8514 12.6568 29.4714 13.0368 29.4714 13.6068V19.0217H28.5215C27.0965 19.0217 25.7665 20.8266 25.6715 22.9166C24.4365 23.6766 23.3916 25.1015 23.2016 26.9065H22.8216C22.2516 26.9065 21.8716 27.2865 21.8716 27.8565V65.8558H19.7816V40.4912C19.7816 39.9213 19.4016 39.5413 18.8316 39.5413H18.4517C18.2617 37.7363 17.2167 36.3113 15.9817 35.5513C15.8867 33.5564 14.5567 31.6564 13.1318 31.6564H12.1818V26.2415C12.1818 25.6715 11.8018 25.2915 11.2318 25.2915C10.6618 25.2915 10.2818 25.6715 10.2818 26.2415V31.6564H9.33183C7.90685 31.6564 6.57688 33.4614 6.48188 35.5513C5.24691 36.3113 4.20193 37.7363 4.01193 39.5413H3.63194C3.06195 39.5413 2.68196 39.9213 2.68196 40.4912V65.7608H1.63698C1.06699 65.7608 0.686996 66.1408 0.686996 66.7107C0.686996 67.2807 1.06699 67.6607 1.63698 67.6607H59.4909C60.0608 67.6607 60.4408 67.2807 60.4408 66.7107C60.4408 66.1408 59.7759 65.8558 59.2059 65.8558ZM47.6161 8.95185H51.416C51.606 9.04685 52.081 9.52184 52.366 10.3768H46.7611C46.9511 9.52184 47.5211 8.95185 47.6161 8.95185ZM46.3811 12.2768H52.746C53.411 12.2768 54.646 13.4168 54.9309 14.9367H44.1962C44.4811 13.4168 45.7161 12.2768 46.3811 12.2768ZM42.8662 16.8367H56.2609V65.8558H42.8662V16.8367ZM28.4265 20.9216H32.2264C32.4164 21.0166 32.8914 21.4916 33.1764 22.3466H27.5715C27.7615 21.4916 28.2365 20.9216 28.4265 20.9216ZM27.0965 24.2466H33.4614C34.1263 24.2466 35.3613 25.3865 35.6463 26.9065H24.9115C25.1965 25.3865 26.4315 24.2466 27.0965 24.2466ZM23.5816 28.8065H36.9763V65.8558H23.5816V28.8065ZM9.14183 33.5564H12.9418C13.1318 33.6514 13.6067 34.1264 13.8917 34.9813H8.28685C8.47685 34.2214 8.95184 33.6514 9.14183 33.5564ZM7.90686 36.9763H14.2717C14.9367 36.9763 16.1717 38.1163 16.4567 39.6363H5.6269C5.91189 38.0213 7.14687 36.9763 7.90686 36.9763ZM4.29693 41.4412H17.6917V65.7608H4.29693V41.4412Z" fill="white"/>
<path d="M33.8414 31.1814C33.2714 31.1814 32.8914 31.5614 32.8914 32.1314V33.0814C32.8914 33.6514 33.2714 34.0314 33.8414 34.0314C34.4114 34.0314 34.7914 33.6514 34.7914 33.0814V32.1314C34.7914 31.6564 34.4114 31.1814 33.8414 31.1814Z" fill="white"/>
<path d="M30.1365 31.1814C29.5665 31.1814 29.1865 31.5614 29.1865 32.1314V33.0814C29.1865 33.6514 29.5665 34.0314 30.1365 34.0314C30.7065 34.0314 31.0865 33.6514 31.0865 33.0814V32.1314C31.0865 31.6564 30.6115 31.1814 30.1365 31.1814Z" fill="white"/>
<path d="M26.3365 31.1814C25.7666 31.1814 25.3866 31.5614 25.3866 32.1314V33.0814C25.3866 33.6514 25.7666 34.0314 26.3365 34.0314C26.9065 34.0314 27.2865 33.6514 27.2865 33.0814V32.1314C27.2865 31.6564 26.8115 31.1814 26.3365 31.1814Z" fill="white"/>
<path d="M33.8414 35.2663C33.2714 35.2663 32.8914 35.6463 32.8914 36.2163V37.5463C32.8914 38.1163 33.2714 38.4963 33.8414 38.4963C34.4114 38.4963 34.7914 38.1163 34.7914 37.5463V36.2163C34.7914 35.6463 34.4114 35.2663 33.8414 35.2663Z" fill="white"/>
<path d="M30.1365 35.2663C29.5665 35.2663 29.1865 35.6463 29.1865 36.2163V37.5463C29.1865 38.1163 29.5665 38.4963 30.1365 38.4963C30.7065 38.4963 31.0865 38.1163 31.0865 37.5463V36.2163C31.0865 35.6463 30.6115 35.2663 30.1365 35.2663Z" fill="white"/>
<path d="M26.3365 35.2663C25.7666 35.2663 25.3866 35.6463 25.3866 36.2163V37.5463C25.3866 38.1163 25.7666 38.4963 26.3365 38.4963C26.9065 38.4963 27.2865 38.1163 27.2865 37.5463V36.2163C27.2865 35.6463 26.8115 35.2663 26.3365 35.2663Z" fill="white"/>
<path d="M33.8414 39.5413C33.2714 39.5413 32.8914 39.9212 32.8914 40.4912V41.4412C32.8914 42.0112 33.2714 42.3912 33.8414 42.3912C34.4114 42.3912 34.7914 42.0112 34.7914 41.4412V40.4912C34.7914 40.0162 34.4114 39.5413 33.8414 39.5413Z" fill="white"/>
<path d="M30.1365 39.5413C29.5665 39.5413 29.1865 39.9212 29.1865 40.4912V41.4412C29.1865 42.0112 29.5665 42.3912 30.1365 42.3912C30.7065 42.3912 31.0865 42.0112 31.0865 41.4412V40.4912C31.0865 40.0162 30.6115 39.5413 30.1365 39.5413Z" fill="white"/>
<path d="M26.3365 39.5413C25.7666 39.5413 25.3866 39.9212 25.3866 40.4912V41.4412C25.3866 42.0112 25.7666 42.3912 26.3365 42.3912C26.9065 42.3912 27.2865 42.0112 27.2865 41.4412V40.4912C27.2865 40.0162 26.8115 39.5413 26.3365 39.5413Z" fill="white"/>
<path d="M33.8414 43.6262C33.2714 43.6262 32.8914 44.0062 32.8914 44.5762V45.9061C32.8914 46.4761 33.2714 46.8561 33.8414 46.8561C34.4114 46.8561 34.7914 46.4761 34.7914 45.9061V44.5762C34.7914 44.1012 34.4114 43.6262 33.8414 43.6262Z" fill="white"/>
<path d="M30.1365 43.6262C29.5665 43.6262 29.1865 44.0062 29.1865 44.5762V45.9061C29.1865 46.4761 29.5665 46.8561 30.1365 46.8561C30.7065 46.8561 31.0865 46.4761 31.0865 45.9061V44.5762C31.0865 44.1012 30.6115 43.6262 30.1365 43.6262Z" fill="white"/>
<path d="M26.3365 43.6262C25.7666 43.6262 25.3866 44.0062 25.3866 44.5762V45.9061C25.3866 46.4761 25.7666 46.8561 26.3365 46.8561C26.9065 46.8561 27.2865 46.4761 27.2865 45.9061V44.5762C27.2865 44.1012 26.8115 43.6262 26.3365 43.6262Z" fill="white"/>
<path d="M33.8414 47.9961C33.2714 47.9961 32.8914 48.3761 32.8914 48.9461V49.8961C32.8914 50.4661 33.2714 50.8461 33.8414 50.8461C34.4114 50.8461 34.7914 50.4661 34.7914 49.8961V48.9461C34.7914 48.3761 34.4114 47.9961 33.8414 47.9961Z" fill="white"/>
<path d="M30.1365 47.9961C29.5665 47.9961 29.1865 48.3761 29.1865 48.9461V49.8961C29.1865 50.4661 29.5665 50.8461 30.1365 50.8461C30.7065 50.8461 31.0865 50.4661 31.0865 49.8961V48.9461C31.0865 48.3761 30.6115 47.9961 30.1365 47.9961Z" fill="white"/>
<path d="M26.3365 47.9961C25.7666 47.9961 25.3866 48.3761 25.3866 48.9461V49.8961C25.3866 50.4661 25.7666 50.8461 26.3365 50.8461C26.9065 50.8461 27.2865 50.4661 27.2865 49.8961V48.9461C27.2865 48.3761 26.8115 47.9961 26.3365 47.9961Z" fill="white"/>
<path d="M33.8414 51.986C33.2714 51.986 32.8914 52.366 32.8914 52.936V54.266C32.8914 54.8359 33.2714 55.2159 33.8414 55.2159C34.4114 55.2159 34.7914 54.8359 34.7914 54.266V52.936C34.7914 52.461 34.4114 51.986 33.8414 51.986Z" fill="white"/>
<path d="M30.1365 51.986C29.5665 51.986 29.1865 52.366 29.1865 52.936V54.266C29.1865 54.8359 29.5665 55.2159 30.1365 55.2159C30.7065 55.2159 31.0865 54.8359 31.0865 54.266V52.936C31.0865 52.461 30.6115 51.986 30.1365 51.986Z" fill="white"/>
<path d="M26.3365 51.986C25.7666 51.986 25.3866 52.366 25.3866 52.936V54.266C25.3866 54.8359 25.7666 55.2159 26.3365 55.2159C26.9065 55.2159 27.2865 54.8359 27.2865 54.266V52.936C27.2865 52.461 26.8115 51.986 26.3365 51.986Z" fill="white"/>
<path d="M33.8414 56.3559C33.2714 56.3559 32.8914 56.7359 32.8914 57.3059V58.2559C32.8914 58.8259 33.2714 59.2059 33.8414 59.2059C34.4114 59.2059 34.7914 58.8259 34.7914 58.2559V57.3059C34.7914 56.7359 34.4114 56.3559 33.8414 56.3559Z" fill="white"/>
<path d="M30.1365 56.3559C29.5665 56.3559 29.1865 56.7359 29.1865 57.3059V58.2559C29.1865 58.8259 29.5665 59.2059 30.1365 59.2059C30.7065 59.2059 31.0865 58.8259 31.0865 58.2559V57.3059C31.0865 56.7359 30.6115 56.3559 30.1365 56.3559Z" fill="white"/>
<path d="M26.3365 56.3559C25.7666 56.3559 25.3866 56.7359 25.3866 57.3059V58.2559C25.3866 58.8259 25.7666 59.2059 26.3365 59.2059C26.9065 59.2059 27.2865 58.8259 27.2865 58.2559V57.3059C27.2865 56.7359 26.8115 56.3559 26.3365 56.3559Z" fill="white"/>
<path d="M33.8414 60.4409C33.2714 60.4409 32.8914 60.8208 32.8914 61.3908V62.3408C32.8914 62.9108 33.2714 63.2908 33.8414 63.2908C34.4114 63.2908 34.7914 62.9108 34.7914 62.3408V61.3908C34.7914 60.8208 34.4114 60.4409 33.8414 60.4409Z" fill="white"/>
<path d="M30.1365 60.4409C29.5665 60.4409 29.1865 60.8208 29.1865 61.3908V62.3408C29.1865 62.9108 29.5665 63.2908 30.1365 63.2908C30.7065 63.2908 31.0865 62.9108 31.0865 62.3408V61.3908C31.0865 60.8208 30.6115 60.4409 30.1365 60.4409Z" fill="white"/>
<path d="M26.3365 60.4409C25.7666 60.4409 25.3866 60.8208 25.3866 61.3908V62.3408C25.3866 62.9108 25.7666 63.2908 26.3365 63.2908C26.9065 63.2908 27.2865 62.9108 27.2865 62.3408V61.3908C27.2865 60.8208 26.8115 60.4409 26.3365 60.4409Z" fill="white"/>
<path d="M14.5568 43.6262C13.9868 43.6262 13.6068 44.0062 13.6068 44.5762V45.9061C13.6068 46.4761 13.9868 46.8561 14.5568 46.8561C15.1268 46.8561 15.5068 46.4761 15.5068 45.9061V44.5762C15.5068 44.1012 15.1268 43.6262 14.5568 43.6262Z" fill="white"/>
<path d="M10.8519 43.6262C10.2819 43.6262 9.90189 44.0062 9.90189 44.5762V45.9061C9.90189 46.4761 10.2819 46.8561 10.8519 46.8561C11.4219 46.8561 11.8019 46.4761 11.8019 45.9061V44.5762C11.8019 44.1012 11.3269 43.6262 10.8519 43.6262Z" fill="white"/>
<path d="M7.05192 43.6262C6.48193 43.6262 6.10194 44.0062 6.10194 44.5762V45.9061C6.10194 46.4761 6.48193 46.8561 7.05192 46.8561C7.62191 46.8561 8.00191 46.4761 8.00191 45.9061V44.5762C8.00191 44.1012 7.62191 43.6262 7.05192 43.6262Z" fill="white"/>
<path d="M14.5568 47.9961C13.9868 47.9961 13.6068 48.3761 13.6068 48.9461V49.8961C13.6068 50.4661 13.9868 50.8461 14.5568 50.8461C15.1268 50.8461 15.5068 50.4661 15.5068 49.8961V48.9461C15.5068 48.3761 15.1268 47.9961 14.5568 47.9961Z" fill="white"/>
<path d="M10.8519 47.9961C10.2819 47.9961 9.90189 48.3761 9.90189 48.9461V49.8961C9.90189 50.4661 10.2819 50.8461 10.8519 50.8461C11.4219 50.8461 11.8019 50.4661 11.8019 49.8961V48.9461C11.8019 48.3761 11.3269 47.9961 10.8519 47.9961Z" fill="white"/>
<path d="M7.05192 47.9961C6.48193 47.9961 6.10194 48.3761 6.10194 48.9461V49.8961C6.10194 50.4661 6.48193 50.8461 7.05192 50.8461C7.62191 50.8461 8.00191 50.4661 8.00191 49.8961V48.9461C8.00191 48.3761 7.62191 47.9961 7.05192 47.9961Z" fill="white"/>
<path d="M14.5568 51.986C13.9868 51.986 13.6068 52.366 13.6068 52.936V54.266C13.6068 54.8359 13.9868 55.2159 14.5568 55.2159C15.1268 55.2159 15.5068 54.8359 15.5068 54.266V52.936C15.5068 52.461 15.1268 51.986 14.5568 51.986Z" fill="white"/>
<path d="M10.8519 51.986C10.2819 51.986 9.90189 52.366 9.90189 52.936V54.266C9.90189 54.8359 10.2819 55.2159 10.8519 55.2159C11.4219 55.2159 11.8019 54.8359 11.8019 54.266V52.936C11.8019 52.461 11.3269 51.986 10.8519 51.986Z" fill="white"/>
<path d="M7.05192 51.986C6.48193 51.986 6.10194 52.366 6.10194 52.936V54.266C6.10194 54.8359 6.48193 55.2159 7.05192 55.2159C7.62191 55.2159 8.00191 54.8359 8.00191 54.266V52.936C8.00191 52.461 7.62191 51.986 7.05192 51.986Z" fill="white"/>
<path d="M14.5568 56.3559C13.9868 56.3559 13.6068 56.7359 13.6068 57.3059V58.2559C13.6068 58.8259 13.9868 59.2059 14.5568 59.2059C15.1268 59.2059 15.5068 58.8259 15.5068 58.2559V57.3059C15.5068 56.7359 15.1268 56.3559 14.5568 56.3559Z" fill="white"/>
<path d="M10.8519 56.3559C10.2819 56.3559 9.90189 56.7359 9.90189 57.3059V58.2559C9.90189 58.8259 10.2819 59.2059 10.8519 59.2059C11.4219 59.2059 11.8019 58.8259 11.8019 58.2559V57.3059C11.8019 56.7359 11.3269 56.3559 10.8519 56.3559Z" fill="white"/>
<path d="M7.05192 56.3559C6.48193 56.3559 6.10194 56.7359 6.10194 57.3059V58.2559C6.10194 58.8259 6.48193 59.2059 7.05192 59.2059C7.62191 59.2059 8.00191 58.8259 8.00191 58.2559V57.3059C8.00191 56.7359 7.62191 56.3559 7.05192 56.3559Z" fill="white"/>
<path d="M14.5568 60.4409C13.9868 60.4409 13.6068 60.8208 13.6068 61.3908V62.3408C13.6068 62.9108 13.9868 63.2908 14.5568 63.2908C15.1268 63.2908 15.5068 62.9108 15.5068 62.3408V61.3908C15.5068 60.8208 15.1268 60.4409 14.5568 60.4409Z" fill="white"/>
<path d="M10.8519 60.4409C10.2819 60.4409 9.90189 60.8208 9.90189 61.3908V62.3408C9.90189 62.9108 10.2819 63.2908 10.8519 63.2908C11.4219 63.2908 11.8019 62.9108 11.8019 62.3408V61.3908C11.8019 60.8208 11.3269 60.4409 10.8519 60.4409Z" fill="white"/>
<path d="M7.05192 60.4409C6.48193 60.4409 6.10194 60.8208 6.10194 61.3908V62.3408C6.10194 62.9108 6.48193 63.2908 7.05192 63.2908C7.62191 63.2908 8.00191 62.9108 8.00191 62.3408V61.3908C8.00191 60.8208 7.62191 60.4409 7.05192 60.4409Z" fill="white"/>
<path d="M76.274 39.9939C76.0264 40.0187 75.9273 39.1518 76.1254 39.1023C77.562 38.7308 78.6765 38.5078 78.6765 36.675V25.6782C78.6765 24.0931 77.661 23.672 76.596 23.3996C76.3979 23.3501 76.5217 22.5327 76.7199 22.5575C78.5279 22.7556 81.6486 22.7061 83.1594 22.7061C85.4133 22.7061 87.048 22.607 89.0789 22.5575C89.6733 22.5575 89.6733 22.9538 89.5495 23.5234L88.9551 25.8764C88.8808 26.2231 88.2616 26.2231 88.1625 25.8764C87.791 24.6627 87.048 23.9692 83.952 23.9692C82.2183 23.9692 81.6486 24.4151 81.6486 25.703V29.9878C81.6486 30.6317 81.9706 30.7556 82.4659 30.7556H83.0108C85.017 30.7556 86.7507 30.5574 87.7662 29.641C88.0139 29.4181 88.5588 29.4677 88.3359 29.963L86.9241 33.0837C86.726 33.5296 86.3545 33.48 86.082 33.1085C85.5124 32.3159 84.2492 31.994 82.8127 31.994H82.4659C81.9706 31.994 81.6486 32.1178 81.6486 32.7618V36.675C81.6486 38.5078 82.7879 38.6565 84.8189 39.1023C85.0418 39.1518 84.9179 40.0187 84.6703 39.9939C82.887 39.8701 81.5991 39.8453 80.1626 39.8453C78.726 39.8453 77.4381 39.8701 76.274 39.9939ZM101.116 40.3407C97.6237 40.3407 93.7104 38.4831 93.7104 33.4553V25.6782C93.7104 24.1179 92.9179 23.5977 91.7043 23.4491C91.5061 23.4244 91.6547 22.607 91.8529 22.607H98.6144C98.8126 22.607 98.9612 23.4244 98.763 23.4491C97.7723 23.573 96.7816 23.9445 96.7816 25.6782V33.5791C96.7816 37.0466 98.7878 38.6565 101.413 38.6565C104.113 38.6565 106.268 37.0466 106.268 33.5791V25.6782C106.268 24.0683 105.351 23.6225 104.138 23.4491C103.964 23.4244 104.088 22.607 104.286 22.607H109.859C110.032 22.607 110.181 23.4244 109.983 23.4491C108.992 23.573 108.001 23.9445 108.001 25.6782V33.4305C108.001 37.9877 105.054 40.3407 101.116 40.3407ZM128.36 40.192C127.939 40.192 127.716 40.0187 127.444 39.7215L115.655 27.3872V36.7989C115.655 38.4831 116.645 38.7555 118.057 39.1023C118.255 39.1518 118.156 39.9444 117.908 39.9444H112.038C111.84 39.9444 111.692 39.1766 111.915 39.1023C112.955 38.7555 113.946 38.5574 113.946 36.7989V27.189C113.946 25.4305 113.673 24.5884 113.029 23.7216C112.806 23.4244 112.583 23.2262 112.583 23.1519C112.583 22.929 112.732 22.607 113.079 22.607H114.912C115.159 22.607 115.333 22.6318 115.506 22.8299L127.048 35.0404V25.7278C127.048 23.9692 125.933 23.7711 124.645 23.4491C124.447 23.3996 124.546 22.607 124.794 22.607H130.664C130.862 22.607 130.986 23.3996 130.788 23.4491C129.698 23.7711 128.757 23.9692 128.757 25.7278V35.3624C128.757 36.997 128.806 38.8051 129.054 39.7215C129.153 40.093 128.757 40.192 128.36 40.192ZM132.744 39.9939C132.497 40.0187 132.397 39.1518 132.596 39.1023C134.032 38.7308 135.147 38.5078 135.147 36.675V25.6782C135.147 24.0931 134.131 23.672 133.066 23.3996C132.868 23.3501 132.992 22.5327 133.19 22.5575C134.206 22.6813 135.246 22.7061 136.286 22.7061C138.218 22.7061 139.952 22.5575 141.215 22.5575C147.209 22.5575 150.453 26.124 150.453 30.9042C150.453 35.6596 147.209 39.9939 141.19 39.9939C140.001 39.9939 138.466 39.8453 136.633 39.8453C135.097 39.8453 133.884 39.8701 132.744 39.9939ZM141.438 38.6812C145.475 38.6812 147.481 36.5017 147.481 32.3159C147.481 27.5853 144.905 23.8702 140.447 23.8702C138.688 23.8702 138.119 24.4151 138.119 25.6782V36.675C138.119 38.0125 139.035 38.6812 141.438 38.6812ZM152.93 39.9444C152.732 39.9444 152.583 39.127 152.781 39.1023C154.044 38.9289 154.837 38.4335 154.837 36.8732V25.6782C154.837 24.1179 154.044 23.6225 152.781 23.4491C152.583 23.4244 152.732 22.607 152.93 22.607H159.716C159.914 22.607 160.063 23.4244 159.865 23.4491C158.8 23.5977 157.809 23.9445 157.809 25.6782V36.8732C157.809 38.6069 158.8 38.9537 159.865 39.1023C160.063 39.127 159.914 39.9444 159.716 39.9444H152.93ZM166.651 39.9939C166.403 40.0187 166.304 39.1518 166.503 39.1023C167.939 38.7308 169.054 38.5078 169.054 36.675V25.6782C169.054 24.0931 168.038 23.672 166.973 23.3996C166.775 23.3501 166.899 22.5327 167.097 22.5575C168.905 22.7556 172.026 22.7061 173.536 22.7061C175.79 22.7061 177.425 22.607 179.456 22.5575C180.05 22.5575 180.05 22.9538 179.927 23.5234L179.332 25.8764C179.258 26.2231 178.639 26.2231 178.54 25.8764C178.168 24.6627 177.425 23.9692 174.329 23.9692C172.595 23.9692 172.026 24.4151 172.026 25.703V29.9878C172.026 30.6317 172.348 30.7556 172.843 30.7556H173.388C175.394 30.7556 177.128 30.5574 178.143 29.641C178.391 29.4181 178.936 29.4677 178.713 29.963L177.301 33.0837C177.103 33.5296 176.732 33.48 176.459 33.1085C175.889 32.3159 174.626 31.994 173.19 31.994H172.843C172.348 31.994 172.026 32.1178 172.026 32.7618V36.675C172.026 38.5078 173.165 38.6565 175.196 39.1023C175.419 39.1518 175.295 40.0187 175.047 39.9939C173.264 39.8701 171.976 39.8453 170.54 39.8453C169.103 39.8453 167.815 39.8701 166.651 39.9939ZM182.354 39.9444C182.156 39.9444 182.007 39.127 182.205 39.1023C183.468 38.9289 184.261 38.4335 184.261 36.8732V25.6782C184.261 24.1179 183.468 23.6225 182.205 23.4491C182.007 23.4244 182.156 22.607 182.354 22.607H189.14C189.338 22.607 189.487 23.4244 189.289 23.4491C188.224 23.5977 187.233 23.9445 187.233 25.6782V36.8732C187.233 38.6069 188.224 38.9537 189.289 39.1023C189.487 39.127 189.338 39.9444 189.14 39.9444H182.354ZM207.79 40.192C207.369 40.192 207.146 40.0187 206.874 39.7215L195.084 27.3872V36.7989C195.084 38.4831 196.075 38.7555 197.487 39.1023C197.685 39.1518 197.586 39.9444 197.338 39.9444H191.468C191.27 39.9444 191.122 39.1766 191.344 39.1023C192.385 38.7555 193.375 38.5574 193.375 36.7989V27.189C193.375 25.4305 193.103 24.5884 192.459 23.7216C192.236 23.4244 192.013 23.2262 192.013 23.1519C192.013 22.929 192.162 22.607 192.508 22.607H194.341C194.589 22.607 194.762 22.6318 194.936 22.8299L206.477 35.0404V25.7278C206.477 23.9692 205.363 23.7711 204.075 23.4491C203.877 23.3996 203.976 22.607 204.224 22.607H210.094C210.292 22.607 210.416 23.3996 210.217 23.4491C209.128 23.7711 208.186 23.9692 208.186 25.7278V35.3624C208.186 36.997 208.236 38.8051 208.484 39.7215C208.583 40.093 208.186 40.192 207.79 40.192ZM230.428 39.1023C230.774 39.1518 230.675 39.9444 230.378 39.9444H223.84C223.518 39.9444 223.493 39.1518 223.765 39.1023C224.682 38.9289 225.672 38.6069 224.756 36.4769L224.484 35.8577C224.236 35.2633 223.815 35.2138 223.072 35.2138H218.019C217.276 35.2138 216.855 35.2633 216.607 35.8577L216.36 36.4769C215.493 38.6069 216.434 38.9289 217.623 39.1023C217.945 39.1518 217.871 39.9444 217.549 39.9444H212.199C211.902 39.9444 211.827 39.1518 212.124 39.1023C213.14 38.9289 213.734 38.5822 214.651 36.4769L218.836 26.8671C219.802 24.6875 220.1 23.672 220.1 22.7309C220.1 22.5823 221.833 22.186 221.908 22.3594L227.951 36.4521C228.843 38.5574 229.437 38.9537 230.428 39.1023ZM222.898 33.8268C223.245 33.8268 223.617 33.7772 223.468 33.4305L220.57 26.4955L217.648 33.4305C217.499 33.7772 217.871 33.8268 218.217 33.8268H222.898ZM248.681 40.192C248.26 40.192 248.038 40.0187 247.765 39.7215L235.976 27.3872V36.7989C235.976 38.4831 236.966 38.7555 238.378 39.1023C238.576 39.1518 238.477 39.9444 238.23 39.9444H232.36C232.161 39.9444 232.013 39.1766 232.236 39.1023C233.276 38.7555 234.267 38.5574 234.267 36.7989V27.189C234.267 25.4305 233.994 24.5884 233.35 23.7216C233.127 23.4244 232.905 23.2262 232.905 23.1519C232.905 22.929 233.053 22.607 233.4 22.607H235.233C235.48 22.607 235.654 22.6318 235.827 22.8299L247.369 35.0404V25.7278C247.369 23.9692 246.254 23.7711 244.966 23.4491C244.768 23.3996 244.867 22.607 245.115 22.607H250.985C251.183 22.607 251.307 23.3996 251.109 23.4491C250.019 23.7711 249.078 23.9692 249.078 25.7278V35.3624C249.078 36.997 249.127 38.8051 249.375 39.7215C249.474 40.093 249.078 40.192 248.681 40.192ZM263.344 40.3407C259.183 40.3407 253.561 37.9134 253.561 31.5977C253.561 27.3129 256.186 22.2107 263.121 22.2107C265.994 22.2107 268.471 23.1024 268.174 23.9692L267.852 24.9352C266.96 27.5853 265.994 24.1922 261.585 24.1922C258.044 24.1922 256.31 26.4955 256.31 30.0621C256.31 35.6348 260.545 37.963 263.938 37.963C264.384 37.963 266.638 37.6162 267.926 36.7989C268.124 36.675 268.644 37.2447 268.496 37.4676C267.431 39.028 264.112 40.3407 263.344 40.3407ZM270.626 39.9939C270.378 40.0187 270.279 39.1518 270.477 39.1023C271.913 38.7308 273.028 38.5078 273.028 36.675V25.6782C273.028 24.0931 272.013 23.672 270.948 23.3996C270.749 23.3501 270.873 22.5327 271.071 22.5575C272.879 22.7556 276 22.7061 277.511 22.7061C279.765 22.7061 281.399 22.607 283.43 22.5575C284.025 22.5575 284.025 22.9538 283.901 23.5234L283.307 25.8764C283.232 26.2231 282.613 26.2231 282.514 25.8764C282.143 24.6627 281.399 23.9692 278.304 23.9692C276.57 23.9692 276 24.4151 276 25.703V29.7401C276 30.3841 276.322 30.5079 276.817 30.5079H277.362C279.369 30.5079 281.102 30.3098 282.118 29.3934C282.365 29.1705 282.91 29.22 282.687 29.7153L281.276 32.8361C281.078 33.2819 280.706 33.2323 280.434 32.8608C279.864 32.0683 278.601 31.7463 277.164 31.7463H276.817C276.322 31.7463 276 31.8701 276 32.5141V36.675C276 38.0868 276.595 38.6069 278.65 38.6069C282.39 38.6069 283.876 36.898 284.471 35.9568C284.644 35.6843 285.313 35.8082 285.313 36.2292C285.313 37.4924 284.248 39.9939 282.687 39.9939C281.3 39.9196 279.938 39.8453 277.858 39.8453C275.579 39.8453 272.879 39.771 270.626 39.9939Z" fill="white"/>
<path d="M76.02 56.3299V51.4887H77.7723C79.3168 51.4887 80.0807 52.4603 80.0807 53.9077C80.0807 55.3584 79.3168 56.33 77.7723 56.33L76.02 56.3299ZM77.0251 55.442H77.722C78.6132 55.442 79.022 54.8858 79.022 53.9075C79.022 52.9292 78.6132 52.373 77.722 52.373H77.0251V55.442ZM83.674 52.3731H81.8782V53.4721H83.4696V54.3465H81.8782V55.4421H83.674V56.3299H80.8664V51.4888H83.674V52.3731ZM86.6976 56.3969C85.2737 56.3969 84.2217 55.4286 84.2217 53.9075C84.2217 52.3865 85.2737 51.4216 86.6976 51.4216C87.7764 51.4216 88.6408 51.9744 88.9859 52.8924L88.0478 53.2341C87.8334 52.6712 87.3208 52.3462 86.6976 52.3462C85.8634 52.3462 85.2235 52.9292 85.2235 53.9075C85.2235 54.8858 85.8634 55.4721 86.6976 55.4721C87.3208 55.4721 87.8334 55.1438 88.0478 54.5809L88.9859 54.9226C88.6408 55.8407 87.7764 56.3969 86.6976 56.3969ZM92.462 52.3731H90.6662V53.4721H92.2576V54.3465H90.6662V55.4421H92.462V56.3299H89.6544V51.4888H92.462V52.3731ZM96.6482 51.4887H97.65V56.3299H96.4874L94.3432 52.8689V56.3299H93.3414V51.4887H94.4906L96.6482 54.9294V51.4887ZM101.555 51.4887V52.3732H100.406V56.3299H99.4106V52.3732H98.2548V51.4887H101.555ZM104.716 56.3299L103.456 54.199H103.165V56.3299H102.159V51.4887H103.915C105.011 51.4887 105.473 52.1353 105.473 52.9361C105.473 53.586 105.104 54.0082 104.448 54.1489L105.905 56.33L104.716 56.3299ZM103.165 52.3227V53.4786H103.758C104.294 53.4786 104.511 53.2507 104.511 52.9023C104.511 52.5572 104.294 52.3227 103.758 52.3227L103.165 52.3227ZM109.726 56.3299L109.375 55.3314H107.341L106.989 56.3299H105.961L107.743 51.4887H108.973L110.755 56.3299H109.726ZM107.636 54.4905H109.08L108.359 52.4368L107.636 54.4905ZM112.331 55.442H113.849V56.3299H111.326V51.4887H112.331V55.442ZM114.46 56.3299V51.4887H115.465V56.3299H114.46ZM118.168 56.3969C117.129 56.3969 116.318 55.8976 116.171 54.9897L117.209 54.7518C117.276 55.2946 117.675 55.576 118.208 55.576C118.616 55.576 118.941 55.3951 118.938 54.9863C118.935 54.5307 118.399 54.3866 117.809 54.2057C117.099 53.9845 116.338 53.7232 116.338 52.832C116.338 51.9308 117.075 51.4215 118.047 51.4215C118.898 51.4215 119.756 51.7666 119.95 52.6947L118.978 52.9359C118.888 52.4534 118.563 52.2424 118.107 52.2424C117.702 52.2424 117.357 52.4099 117.357 52.8086C117.357 53.1805 117.833 53.3044 118.382 53.4686C119.112 53.6897 119.977 53.9711 119.977 54.936C119.977 55.9646 119.116 56.3969 118.168 56.3969ZM123.557 52.3731H121.761V53.4721H123.352V54.3465H121.761V55.4421H123.557V56.3299H120.749V51.4888H123.557V52.3731ZM124.436 56.3299V51.4887H126.188C127.733 51.4887 128.497 52.4603 128.497 53.9077C128.497 55.3584 127.733 56.33 126.188 56.33L124.436 56.3299ZM125.441 55.442H126.138C127.029 55.442 127.438 54.8858 127.438 53.9075C127.438 52.9292 127.029 52.373 126.138 52.373H125.441V55.442ZM133.003 56.3969C131.606 56.3969 130.577 55.432 130.577 53.9209C130.577 52.3898 131.629 51.4216 133.053 51.4216C133.988 51.4216 134.762 51.8337 135.184 52.5607L134.303 53.0297C134.048 52.5339 133.593 52.296 133.053 52.296C132.216 52.296 131.586 52.8723 131.586 53.8975C131.586 54.8858 132.175 55.5224 133.09 55.5224C133.71 55.5224 134.279 55.2142 134.417 54.5072H133.093V53.6998H135.368V56.3298H134.578V55.6598C134.266 56.1188 133.743 56.3969 133.003 56.3969ZM138.399 56.3969C136.975 56.3969 135.923 55.4253 135.923 53.9075C135.923 52.3865 136.975 51.4216 138.399 51.4216C139.819 51.4216 140.871 52.3865 140.871 53.9075C140.871 55.4252 139.819 56.3969 138.399 56.3969ZM138.399 55.4755C139.233 55.4755 139.873 54.8892 139.873 53.9076C139.873 52.9292 139.233 52.3463 138.399 52.3463C137.564 52.3463 136.925 52.9292 136.925 53.9076C136.925 54.8892 137.564 55.4755 138.399 55.4755ZM144.719 51.4887H145.788L143.999 56.3299H142.893L141.114 51.4887H142.18L143.449 55.1572L144.719 51.4887ZM149.167 52.3731H147.371V53.4721H148.962V54.3465H147.371V55.4421H149.167V56.3299H146.359V51.4888H149.167V52.3731ZM152.603 56.3299L151.343 54.199H151.051V56.3299H150.046V51.4887H151.802C152.897 51.4887 153.36 52.1353 153.36 52.9361C153.36 53.586 152.991 54.0082 152.334 54.1489L153.792 56.33L152.603 56.3299ZM151.051 52.3227V53.4786H151.644C152.18 53.4786 152.398 53.2507 152.398 52.9023C152.398 52.5572 152.18 52.3227 151.644 52.3227L151.051 52.3227ZM157.68 51.4887H158.682V56.3299H157.519L155.375 52.8689V56.3299H154.373V51.4887H155.522L157.68 54.9294V51.4887ZM163.019 56.3299L162.667 55.3314H160.633L160.282 56.3299H159.253L161.036 51.4887H162.265L164.048 56.3299H163.019ZM160.928 54.4905H162.372L161.652 52.4368L160.928 54.4905ZM167.925 51.4887H168.927V56.3299H167.765L165.62 52.8689V56.3299H164.619V51.4887H165.768L167.925 54.9294V51.4887ZM172.169 56.3969C170.745 56.3969 169.693 55.4286 169.693 53.9075C169.693 52.3865 170.745 51.4216 172.169 51.4216C173.247 51.4216 174.112 51.9744 174.457 52.8924L173.519 53.2341C173.304 52.6712 172.792 52.3462 172.169 52.3462C171.334 52.3462 170.694 52.9292 170.694 53.9075C170.694 54.8858 171.334 55.4721 172.169 55.4721C172.792 55.4721 173.304 55.1438 173.519 54.5809L174.457 54.9226C174.112 55.8407 173.247 56.3969 172.169 56.3969ZM177.933 52.3731H176.137V53.4721H177.729V54.3465H176.137V55.4421H177.933V56.3299H175.125V51.4888H177.933V52.3731ZM183.247 51.4887V52.3732H182.097V56.3299H181.102V52.3732H179.947V51.4887H183.247ZM187.091 56.3299L186.739 55.3314H184.706L184.354 56.3299H183.326L185.108 51.4887H186.337L188.12 56.3299H187.091ZM185.001 54.4905H186.445L185.724 52.4368L185.001 54.4905ZM191.998 51.4887H193V56.3299H191.837L189.693 52.8689V56.3299H188.691V51.4887H189.84L191.998 54.9294V51.4887ZM196.191 56.3969C194.794 56.3969 193.765 55.432 193.765 53.9209C193.765 52.3898 194.817 51.4216 196.241 51.4216C197.176 51.4216 197.95 51.8337 198.372 52.5607L197.491 53.0297C197.236 52.5339 196.78 52.296 196.241 52.296C195.403 52.296 194.773 52.8723 194.773 53.8975C194.773 54.8858 195.363 55.5224 196.278 55.5224C196.898 55.5224 197.467 55.2142 197.605 54.5072H196.281V53.6998H198.556V56.3298H197.765V55.6598C197.454 56.1188 196.931 56.3969 196.191 56.3969ZM199.442 56.3299V51.4887H200.447V56.3299H199.442ZM204.141 53.7735C204.687 53.9243 205.052 54.2828 205.052 54.9729C205.052 55.7904 204.557 56.3299 203.535 56.3299H201.541V51.4887H203.109C204.155 51.4887 204.704 51.9912 204.704 52.8154C204.704 53.2409 204.52 53.5893 204.141 53.7735ZM203.119 52.3227H202.509V53.4618H203.163C203.592 53.4618 203.779 53.2072 203.779 52.8789C203.779 52.5572 203.568 52.3227 203.119 52.3227ZM203.347 55.4688C203.89 55.4688 204.077 55.1773 204.077 54.8624C204.077 54.5407 203.893 54.2358 203.327 54.2358H202.509V55.4688H203.347ZM206.796 55.442H208.314V56.3299H205.791V51.4887H206.796V55.442ZM211.733 52.3731H209.937V53.4721H211.529V54.3465H209.937V55.4421H211.733V56.3299H208.925V51.4888H211.733V52.3731ZM217.093 52.3731H215.251V53.4721H216.842V54.3465H215.251V56.3299H214.239V51.4888H217.093V52.3731ZM217.796 56.3299V51.4887H218.801V56.3299H217.796ZM223.201 51.4887H224.203V56.3299H223.04L220.896 52.8689V56.3299H219.895V51.4887H221.044L223.201 54.9294V51.4887ZM228.54 56.3299L228.188 55.3314H226.155L225.803 56.3299H224.774L226.557 51.4887H227.786L229.569 56.3299H228.54ZM226.449 54.4905H227.893L227.173 52.4368L226.449 54.4905ZM233.447 51.4887H234.448V56.3299H233.286L231.142 52.8689V56.3299H230.14V51.4887H231.289L233.447 54.9294V51.4887ZM237.69 56.3969C236.266 56.3969 235.214 55.4286 235.214 53.9075C235.214 52.3865 236.266 51.4216 237.69 51.4216C238.769 51.4216 239.633 51.9744 239.978 52.8924L239.04 53.2341C238.826 52.6712 238.313 52.3462 237.69 52.3462C236.856 52.3462 236.216 52.9292 236.216 53.9075C236.216 54.8858 236.856 55.4721 237.69 55.4721C238.313 55.4721 238.826 55.1438 239.04 54.5809L239.978 54.9226C239.633 55.8407 238.769 56.3969 237.69 56.3969ZM243.454 52.3731H241.658V53.4721H243.25V54.3465H241.658V55.4421H243.454V56.3299H240.647V51.4888H243.454V52.3731Z" fill="white"/>
</svg>
