
        <svg xmlns="http://www.w3.org/2000/svg" xmlns:xlink="http://www.w3.org/1999/xlink" version="1.1" width="3162.0452935064695" 
        height="940.8786553662366" viewBox="0 -72.92038207791123 3162.0452935064695 940.8786553662366">
			
			<g transform="scale(8.10226467532347) translate(10, 10)">
				<defs id="SvgjsDefs1081"><linearGradient id="SvgjsLinearGradient1088"><stop id="SvgjsStop1089" stop-color="#616161" offset="0"></stop><stop id="SvgjsStop1090" stop-color="#e6e7e8" offset="0.5"></stop><stop id="SvgjsStop1091" stop-color="#616161" offset="1"></stop></linearGradient><linearGradient id="SvgjsLinearGradient1092"><stop id="SvgjsStop1093" stop-color="#616161" offset="0"></stop><stop id="SvgjsStop1094" stop-color="#e6e7e8" offset="0.5"></stop><stop id="SvgjsStop1095" stop-color="#616161" offset="1"></stop></linearGradient></defs><g id="SvgjsG1082" featureKey="symbolFeature-0" transform="matrix(1.2358211523654024,0,0,1.2358211523654024,-26.817322306327732,-27.166570704057236)" fill="url(#SvgjsLinearGradient1088)"><path xmlns="http://www.w3.org/2000/svg" d="M76.9,33.7c-0.6,0-1,0.4-1,1v1c0,0.6,0.4,1,1,1s1-0.4,1-1v-1C77.9,34.2,77.5,33.7,76.9,33.7z"></path><path xmlns="http://www.w3.org/2000/svg" d="M73,33.7c-0.6,0-1,0.4-1,1v1c0,0.6,0.4,1,1,1s1-0.4,1-1v-1C74,34.2,73.5,33.7,73,33.7z"></path><path xmlns="http://www.w3.org/2000/svg" d="M69,33.7c-0.6,0-1,0.4-1,1v1c0,0.6,0.4,1,1,1s1-0.4,1-1v-1C70,34.2,69.5,33.7,69,33.7z"></path><path xmlns="http://www.w3.org/2000/svg" d="M76.9,38c-0.6,0-1,0.4-1,1v1c0,0.6,0.4,1,1,1s1-0.4,1-1v-1C77.9,38.4,77.5,38,76.9,38z"></path><path xmlns="http://www.w3.org/2000/svg" d="M73,38c-0.6,0-1,0.4-1,1v1c0,0.6,0.4,1,1,1s1-0.4,1-1v-1C74,38.4,73.5,38,73,38z"></path><path xmlns="http://www.w3.org/2000/svg" d="M69,38c-0.6,0-1,0.4-1,1v1c0,0.6,0.4,1,1,1s1-0.4,1-1v-1C70,38.4,69.5,38,69,38z"></path><path xmlns="http://www.w3.org/2000/svg" d="M76.9,42.3c-0.6,0-1,0.4-1,1v1c0,0.6,0.4,1,1,1s1-0.4,1-1v-1C77.9,42.7,77.5,42.3,76.9,42.3z"></path><path xmlns="http://www.w3.org/2000/svg" d="M73,42.3c-0.6,0-1,0.4-1,1v1c0,0.6,0.4,1,1,1s1-0.4,1-1v-1C74,42.7,73.5,42.3,73,42.3z"></path><path xmlns="http://www.w3.org/2000/svg" d="M69,42.3c-0.6,0-1,0.4-1,1v1c0,0.6,0.4,1,1,1s1-0.4,1-1v-1C70,42.7,69.5,42.3,69,42.3z"></path><path xmlns="http://www.w3.org/2000/svg" d="M76.9,46.8c-0.6,0-1,0.4-1,1v1c0,0.6,0.4,1,1,1s1-0.4,1-1v-1C77.9,47.3,77.5,46.8,76.9,46.8z"></path><path xmlns="http://www.w3.org/2000/svg" d="M73,46.8c-0.6,0-1,0.4-1,1v1c0,0.6,0.4,1,1,1s1-0.4,1-1v-1C74,47.3,73.5,46.8,73,46.8z"></path><path xmlns="http://www.w3.org/2000/svg" d="M69,46.8c-0.6,0-1,0.4-1,1v1c0,0.6,0.4,1,1,1s1-0.4,1-1v-1C70,47.3,69.5,46.8,69,46.8z"></path><path xmlns="http://www.w3.org/2000/svg" d="M76.9,51.1c-0.6,0-1,0.4-1,1v0.3v0.8v0.3c0,0.6,0.4,1,1,1s1-0.4,1-1v-0.3v-0.8v-0.3C77.9,51.5,77.5,51.1,76.9,51.1z"></path><path xmlns="http://www.w3.org/2000/svg" d="M73,51.1c-0.6,0-1,0.4-1,1v0.3v0.8v0.3c0,0.6,0.4,1,1,1s1-0.4,1-1v-0.3v-0.8v-0.3C74,51.5,73.5,51.1,73,51.1z"></path><path xmlns="http://www.w3.org/2000/svg" d="M69,51.1c-0.6,0-1,0.4-1,1v0.3v0.8v0.3c0,0.6,0.4,1,1,1s1-0.4,1-1v-0.3v-0.8v-0.3C70,51.5,69.5,51.1,69,51.1z"></path><path xmlns="http://www.w3.org/2000/svg" d="M76.9,55.6c-0.6,0-1,0.4-1,1v1c0,0.6,0.4,1,1,1s1-0.4,1-1v-1C77.9,56.1,77.5,55.6,76.9,55.6z"></path><path xmlns="http://www.w3.org/2000/svg" d="M73,55.6c-0.6,0-1,0.4-1,1v1c0,0.6,0.4,1,1,1s1-0.4,1-1v-1C74,56.1,73.5,55.6,73,55.6z"></path><path xmlns="http://www.w3.org/2000/svg" d="M69,55.6c-0.6,0-1,0.4-1,1v1c0,0.6,0.4,1,1,1s1-0.4,1-1v-1C70,56.1,69.5,55.6,69,55.6z"></path><path xmlns="http://www.w3.org/2000/svg" d="M76.9,59.9c-0.6,0-1,0.4-1,1v0.3V62v0.3c0,0.6,0.4,1,1,1s1-0.4,1-1V62v-0.8v-0.3C77.9,60.4,77.5,59.9,76.9,59.9z"></path><path xmlns="http://www.w3.org/2000/svg" d="M73,59.9c-0.6,0-1,0.4-1,1v0.3V62v0.3c0,0.6,0.4,1,1,1s1-0.4,1-1V62v-0.8v-0.3C74,60.4,73.5,59.9,73,59.9z"></path><path xmlns="http://www.w3.org/2000/svg" d="M69,59.9c-0.6,0-1,0.4-1,1v0.3V62v0.3c0,0.6,0.4,1,1,1s1-0.4,1-1V62v-0.8v-0.3C70,60.4,69.5,59.9,69,59.9z"></path><path xmlns="http://www.w3.org/2000/svg" d="M76.9,64.5c-0.6,0-1,0.4-1,1v1c0,0.6,0.4,1,1,1s1-0.4,1-1v-1C77.9,64.9,77.5,64.5,76.9,64.5z"></path><path xmlns="http://www.w3.org/2000/svg" d="M73,64.5c-0.6,0-1,0.4-1,1v1c0,0.6,0.4,1,1,1s1-0.4,1-1v-1C74,64.9,73.5,64.5,73,64.5z"></path><path xmlns="http://www.w3.org/2000/svg" d="M69,64.5c-0.6,0-1,0.4-1,1v1c0,0.6,0.4,1,1,1s1-0.4,1-1v-1C70,64.9,69.5,64.5,69,64.5z"></path><path xmlns="http://www.w3.org/2000/svg" d="M76.9,68.7c-0.6,0-1,0.4-1,1V70v0.8v0.3c0,0.6,0.4,1,1,1s1-0.4,1-1v-0.3V70v-0.3C77.9,69.2,77.5,68.7,76.9,68.7z"></path><path xmlns="http://www.w3.org/2000/svg" d="M73,68.7c-0.6,0-1,0.4-1,1V70v0.8v0.3c0,0.6,0.4,1,1,1s1-0.4,1-1v-0.3V70v-0.3C74,69.2,73.5,68.7,73,68.7z"></path><path xmlns="http://www.w3.org/2000/svg" d="M69,68.7c-0.6,0-1,0.4-1,1V70v0.8v0.3c0,0.6,0.4,1,1,1s1-0.4,1-1v-0.3V70v-0.3C70,69.2,69.5,68.7,69,68.7z"></path><path xmlns="http://www.w3.org/2000/svg" d="M76.9,73.3c-0.6,0-1,0.4-1,1v1c0,0.6,0.4,1,1,1s1-0.4,1-1v-1C77.9,73.7,77.5,73.3,76.9,73.3z"></path><path xmlns="http://www.w3.org/2000/svg" d="M73,73.3c-0.6,0-1,0.4-1,1v1c0,0.6,0.4,1,1,1s1-0.4,1-1v-1C74,73.7,73.5,73.3,73,73.3z"></path><path xmlns="http://www.w3.org/2000/svg" d="M69,73.3c-0.6,0-1,0.4-1,1v1c0,0.6,0.4,1,1,1s1-0.4,1-1v-1C70,73.7,69.5,73.3,69,73.3z"></path><path xmlns="http://www.w3.org/2000/svg" d="M76.9,77.6c-0.6,0-1,0.4-1,1v1c0,0.6,0.4,1,1,1s1-0.4,1-1v-1C77.9,78,77.5,77.6,76.9,77.6z"></path><path xmlns="http://www.w3.org/2000/svg" d="M73,77.6c-0.6,0-1,0.4-1,1v1c0,0.6,0.4,1,1,1s1-0.4,1-1v-1C74,78,73.5,77.6,73,77.6z"></path><path xmlns="http://www.w3.org/2000/svg" d="M69,77.6c-0.6,0-1,0.4-1,1v1c0,0.6,0.4,1,1,1s1-0.4,1-1v-1C70,78,69.5,77.6,69,77.6z"></path><path xmlns="http://www.w3.org/2000/svg" d="M83.3,83.3h-1.1V30.7c0-0.6-0.4-1-1-1h-0.4c-0.2-1.9-1.3-3.4-2.6-4.2c-0.1-2.1-1.5-4.1-3-4.1h-1v-5.7c0-0.6-0.4-1-1-1  s-1,0.4-1,1v5.7h-1c-1.5,0-2.9,1.9-3,4.1c-1.3,0.8-2.4,2.3-2.6,4.2h-0.4c-0.6,0-1,0.4-1,1v52.6h-2.2v-40c0-0.6-0.4-1-1-1h-0.4  c-0.2-1.9-1.3-3.4-2.6-4.2c-0.1-2.1-1.5-4.1-3-4.1h-1v-5.7c0-0.6-0.4-1-1-1s-1,0.4-1,1V34h-1c-1.5,0-2.9,1.9-3,4.1  c-1.3,0.8-2.4,2.3-2.6,4.2h-0.4c-0.6,0-1,0.4-1,1v40h-2.2V56.6c0-0.6-0.4-1-1-1h-0.4c-0.2-1.9-1.3-3.4-2.6-4.2  c-0.1-2.1-1.5-4.1-3-4.1h-1v-5.7c0-0.6-0.4-1-1-1s-1,0.4-1,1v5.7h-1c-1.5,0-2.9,1.9-3,4.1c-1.3,0.8-2.4,2.3-2.6,4.2h-0.4  c-0.6,0-1,0.4-1,1v26.6h-1.1c-0.6,0-1,0.4-1,1s0.4,1,1,1h60.9c0.6,0,1-0.4,1-1S83.9,83.3,83.3,83.3z M71.1,23.4l4,0  c0.2,0.1,0.7,0.6,1,1.5h-5.9C70.4,24,71,23.4,71.1,23.4z M69.8,26.9h6.7c0.7,0,2,1.2,2.3,2.8H67.5C67.8,28.1,69.1,26.9,69.8,26.9z   M66.1,31.7h14.1v51.6H66.1V31.7z M50.9,36l4,0c0.2,0.1,0.7,0.6,1,1.5h-5.9C50.2,36.6,50.7,36,50.9,36z M49.5,39.5h6.7  c0.7,0,2,1.2,2.3,2.8H47.2C47.5,40.7,48.8,39.5,49.5,39.5z M45.8,44.3h14.1v39H45.8V44.3z M30.6,49.3l4,0c0.2,0.1,0.7,0.6,1,1.5  h-5.9C29.9,50,30.4,49.4,30.6,49.3z M29.3,52.9h6.7c0.7,0,2,1.2,2.3,2.8H26.9C27.2,54,28.5,52.9,29.3,52.9z M25.5,57.6h14.1v25.6  H25.5V57.6z"></path><path xmlns="http://www.w3.org/2000/svg" d="M56.6,46.8c-0.6,0-1,0.4-1,1v1c0,0.6,0.4,1,1,1s1-0.4,1-1v-1C57.6,47.3,57.2,46.8,56.6,46.8z"></path><path xmlns="http://www.w3.org/2000/svg" d="M52.7,46.8c-0.6,0-1,0.4-1,1v1c0,0.6,0.4,1,1,1s1-0.4,1-1v-1C53.7,47.3,53.2,46.8,52.7,46.8z"></path><path xmlns="http://www.w3.org/2000/svg" d="M48.7,46.8c-0.6,0-1,0.4-1,1v1c0,0.6,0.4,1,1,1s1-0.4,1-1v-1C49.7,47.3,49.2,46.8,48.7,46.8z"></path><path xmlns="http://www.w3.org/2000/svg" d="M56.6,51.1c-0.6,0-1,0.4-1,1v0.3v0.8v0.3c0,0.6,0.4,1,1,1s1-0.4,1-1v-0.3v-0.8v-0.3C57.6,51.5,57.2,51.1,56.6,51.1z"></path><path xmlns="http://www.w3.org/2000/svg" d="M52.7,51.1c-0.6,0-1,0.4-1,1v0.3v0.8v0.3c0,0.6,0.4,1,1,1s1-0.4,1-1v-0.3v-0.8v-0.3C53.7,51.5,53.2,51.1,52.7,51.1z"></path><path xmlns="http://www.w3.org/2000/svg" d="M48.7,51.1c-0.6,0-1,0.4-1,1v0.3v0.8v0.3c0,0.6,0.4,1,1,1s1-0.4,1-1v-0.3v-0.8v-0.3C49.7,51.5,49.2,51.1,48.7,51.1z"></path><path xmlns="http://www.w3.org/2000/svg" d="M56.6,55.6c-0.6,0-1,0.4-1,1v1c0,0.6,0.4,1,1,1s1-0.4,1-1v-1C57.6,56.1,57.2,55.6,56.6,55.6z"></path><path xmlns="http://www.w3.org/2000/svg" d="M52.7,55.6c-0.6,0-1,0.4-1,1v1c0,0.6,0.4,1,1,1s1-0.4,1-1v-1C53.7,56.1,53.2,55.6,52.7,55.6z"></path><path xmlns="http://www.w3.org/2000/svg" d="M48.7,55.6c-0.6,0-1,0.4-1,1v1c0,0.6,0.4,1,1,1s1-0.4,1-1v-1C49.7,56.1,49.2,55.6,48.7,55.6z"></path><path xmlns="http://www.w3.org/2000/svg" d="M56.6,59.9c-0.6,0-1,0.4-1,1v0.3V62v0.3c0,0.6,0.4,1,1,1s1-0.4,1-1V62v-0.8v-0.3C57.6,60.4,57.2,59.9,56.6,59.9z"></path><path xmlns="http://www.w3.org/2000/svg" d="M52.7,59.9c-0.6,0-1,0.4-1,1v0.3V62v0.3c0,0.6,0.4,1,1,1s1-0.4,1-1V62v-0.8v-0.3C53.7,60.4,53.2,59.9,52.7,59.9z"></path><path xmlns="http://www.w3.org/2000/svg" d="M48.7,59.9c-0.6,0-1,0.4-1,1v0.3V62v0.3c0,0.6,0.4,1,1,1s1-0.4,1-1V62v-0.8v-0.3C49.7,60.4,49.2,59.9,48.7,59.9z"></path><path xmlns="http://www.w3.org/2000/svg" d="M56.6,64.5c-0.6,0-1,0.4-1,1v1c0,0.6,0.4,1,1,1s1-0.4,1-1v-1C57.6,64.9,57.2,64.5,56.6,64.5z"></path><path xmlns="http://www.w3.org/2000/svg" d="M52.7,64.5c-0.6,0-1,0.4-1,1v1c0,0.6,0.4,1,1,1s1-0.4,1-1v-1C53.7,64.9,53.2,64.5,52.7,64.5z"></path><path xmlns="http://www.w3.org/2000/svg" d="M48.7,64.5c-0.6,0-1,0.4-1,1v1c0,0.6,0.4,1,1,1s1-0.4,1-1v-1C49.7,64.9,49.2,64.5,48.7,64.5z"></path><path xmlns="http://www.w3.org/2000/svg" d="M56.6,68.7c-0.6,0-1,0.4-1,1V70v0.8v0.3c0,0.6,0.4,1,1,1s1-0.4,1-1v-0.3V70v-0.3C57.6,69.2,57.2,68.7,56.6,68.7z"></path><path xmlns="http://www.w3.org/2000/svg" d="M52.7,68.7c-0.6,0-1,0.4-1,1V70v0.8v0.3c0,0.6,0.4,1,1,1s1-0.4,1-1v-0.3V70v-0.3C53.7,69.2,53.2,68.7,52.7,68.7z"></path><path xmlns="http://www.w3.org/2000/svg" d="M48.7,68.7c-0.6,0-1,0.4-1,1V70v0.8v0.3c0,0.6,0.4,1,1,1s1-0.4,1-1v-0.3V70v-0.3C49.7,69.2,49.2,68.7,48.7,68.7z"></path><path xmlns="http://www.w3.org/2000/svg" d="M56.6,73.3c-0.6,0-1,0.4-1,1v1c0,0.6,0.4,1,1,1s1-0.4,1-1v-1C57.6,73.7,57.2,73.3,56.6,73.3z"></path><path xmlns="http://www.w3.org/2000/svg" d="M52.7,73.3c-0.6,0-1,0.4-1,1v1c0,0.6,0.4,1,1,1s1-0.4,1-1v-1C53.7,73.7,53.2,73.3,52.7,73.3z"></path><path xmlns="http://www.w3.org/2000/svg" d="M48.7,73.3c-0.6,0-1,0.4-1,1v1c0,0.6,0.4,1,1,1s1-0.4,1-1v-1C49.7,73.7,49.2,73.3,48.7,73.3z"></path><path xmlns="http://www.w3.org/2000/svg" d="M56.6,77.6c-0.6,0-1,0.4-1,1v1c0,0.6,0.4,1,1,1s1-0.4,1-1v-1C57.6,78,57.2,77.6,56.6,77.6z"></path><path xmlns="http://www.w3.org/2000/svg" d="M52.7,77.6c-0.6,0-1,0.4-1,1v1c0,0.6,0.4,1,1,1s1-0.4,1-1v-1C53.7,78,53.2,77.6,52.7,77.6z"></path><path xmlns="http://www.w3.org/2000/svg" d="M48.7,77.6c-0.6,0-1,0.4-1,1v1c0,0.6,0.4,1,1,1s1-0.4,1-1v-1C49.7,78,49.2,77.6,48.7,77.6z"></path><path xmlns="http://www.w3.org/2000/svg" d="M36.3,59.9c-0.6,0-1,0.4-1,1v0.3V62v0.3c0,0.6,0.4,1,1,1s1-0.4,1-1V62v-0.8v-0.3C37.3,60.4,36.9,59.9,36.3,59.9z"></path><path xmlns="http://www.w3.org/2000/svg" d="M32.4,59.9c-0.6,0-1,0.4-1,1v0.3V62v0.3c0,0.6,0.4,1,1,1s1-0.4,1-1V62v-0.8v-0.3C33.4,60.4,32.9,59.9,32.4,59.9z"></path><path xmlns="http://www.w3.org/2000/svg" d="M28.4,59.9c-0.6,0-1,0.4-1,1v0.3V62v0.3c0,0.6,0.4,1,1,1s1-0.4,1-1V62v-0.8v-0.3C29.4,60.4,29,59.9,28.4,59.9z"></path><path xmlns="http://www.w3.org/2000/svg" d="M36.3,64.5c-0.6,0-1,0.4-1,1v1c0,0.6,0.4,1,1,1s1-0.4,1-1v-1C37.3,64.9,36.9,64.5,36.3,64.5z"></path><path xmlns="http://www.w3.org/2000/svg" d="M32.4,64.5c-0.6,0-1,0.4-1,1v1c0,0.6,0.4,1,1,1s1-0.4,1-1v-1C33.4,64.9,32.9,64.5,32.4,64.5z"></path><path xmlns="http://www.w3.org/2000/svg" d="M28.4,64.5c-0.6,0-1,0.4-1,1v1c0,0.6,0.4,1,1,1s1-0.4,1-1v-1C29.4,64.9,29,64.5,28.4,64.5z"></path><path xmlns="http://www.w3.org/2000/svg" d="M36.3,68.7c-0.6,0-1,0.4-1,1V70v0.8v0.3c0,0.6,0.4,1,1,1s1-0.4,1-1v-0.3V70v-0.3C37.3,69.2,36.9,68.7,36.3,68.7z"></path><path xmlns="http://www.w3.org/2000/svg" d="M32.4,68.7c-0.6,0-1,0.4-1,1V70v0.8v0.3c0,0.6,0.4,1,1,1s1-0.4,1-1v-0.3V70v-0.3C33.4,69.2,32.9,68.7,32.4,68.7z"></path><path xmlns="http://www.w3.org/2000/svg" d="M28.4,68.7c-0.6,0-1,0.4-1,1V70v0.8v0.3c0,0.6,0.4,1,1,1s1-0.4,1-1v-0.3V70v-0.3C29.4,69.2,29,68.7,28.4,68.7z"></path><path xmlns="http://www.w3.org/2000/svg" d="M36.3,73.3c-0.6,0-1,0.4-1,1v1c0,0.6,0.4,1,1,1s1-0.4,1-1v-1C37.3,73.7,36.9,73.3,36.3,73.3z"></path><path xmlns="http://www.w3.org/2000/svg" d="M32.4,73.3c-0.6,0-1,0.4-1,1v1c0,0.6,0.4,1,1,1s1-0.4,1-1v-1C33.4,73.7,32.9,73.3,32.4,73.3z"></path><path xmlns="http://www.w3.org/2000/svg" d="M28.4,73.3c-0.6,0-1,0.4-1,1v1c0,0.6,0.4,1,1,1s1-0.4,1-1v-1C29.4,73.7,29,73.3,28.4,73.3z"></path><path xmlns="http://www.w3.org/2000/svg" d="M36.3,77.6c-0.6,0-1,0.4-1,1v1c0,0.6,0.4,1,1,1s1-0.4,1-1v-1C37.3,78,36.9,77.6,36.3,77.6z"></path><path xmlns="http://www.w3.org/2000/svg" d="M32.4,77.6c-0.6,0-1,0.4-1,1v1c0,0.6,0.4,1,1,1s1-0.4,1-1v-1C33.4,78,32.9,77.6,32.4,77.6z"></path><path xmlns="http://www.w3.org/2000/svg" d="M28.4,77.6c-0.6,0-1,0.4-1,1v1c0,0.6,0.4,1,1,1s1-0.4,1-1v-1C29.4,78,29,77.6,28.4,77.6z"></path></g><g id="SvgjsG1083" featureKey="nameFeature-0" transform="matrix(0.8054987086993771,0,0,0.8054987086993771,97.20274260319911,9.84953417753768)" fill="url(#SvgjsLinearGradient1092)"><path d="M1.4 40.08 c-0.4 0.04 -0.56 -1.36 -0.24 -1.44 c2.32 -0.6 4.12 -0.96 4.12 -3.92 l0 -17.76 c0 -2.56 -1.64 -3.24 -3.36 -3.68 c-0.32 -0.08 -0.12 -1.4 0.2 -1.36 c2.92 0.32 7.96 0.24 10.4 0.24 c3.64 0 6.28 -0.16 9.56 -0.24 c0.96 0 0.96 0.64 0.76 1.56 l-0.96 3.8 c-0.12 0.56 -1.12 0.56 -1.28 0 c-0.6 -1.96 -1.8 -3.08 -6.8 -3.08 c-2.8 0 -3.72 0.72 -3.72 2.8 l0 6.92 c0 1.04 0.52 1.24 1.32 1.24 l0.88 0 c3.24 0 6.04 -0.32 7.68 -1.8 c0.4 -0.36 1.28 -0.28 0.92 0.52 l-2.28 5.04 c-0.32 0.72 -0.92 0.64 -1.36 0.04 c-0.92 -1.28 -2.96 -1.8 -5.28 -1.8 l-0.56 0 c-0.8 0 -1.32 0.2 -1.32 1.24 l0 6.32 c0 2.96 1.84 3.2 5.12 3.92 c0.36 0.08 0.16 1.48 -0.24 1.44 c-2.88 -0.2 -4.96 -0.24 -7.28 -0.24 s-4.4 0.04 -6.28 0.24 z M41.52 40.64 c-5.64 0 -11.96 -3 -11.96 -11.12 l0 -12.56 c0 -2.52 -1.28 -3.36 -3.24 -3.6 c-0.32 -0.04 -0.08 -1.36 0.24 -1.36 l10.92 0 c0.32 0 0.56 1.32 0.24 1.36 c-1.6 0.2 -3.2 0.8 -3.2 3.6 l0 12.76 c0 5.6 3.24 8.2 7.48 8.2 c4.36 0 7.84 -2.6 7.84 -8.2 l0 -12.76 c0 -2.6 -1.48 -3.32 -3.44 -3.6 c-0.28 -0.04 -0.08 -1.36 0.24 -1.36 l9 0 c0.28 0 0.52 1.32 0.2 1.36 c-1.6 0.2 -3.2 0.8 -3.2 3.6 l0 12.52 c0 7.36 -4.76 11.16 -11.12 11.16 z M85.52000000000001 40.4 c-0.68 0 -1.04 -0.28 -1.48 -0.76 l-19.04 -19.92 l0 15.2 c0 2.72 1.6 3.16 3.88 3.72 c0.32 0.08 0.16 1.36 -0.24 1.36 l-9.48 0 c-0.32 0 -0.56 -1.24 -0.2 -1.36 c1.68 -0.56 3.28 -0.88 3.28 -3.72 l0 -15.52 c0 -2.84 -0.44 -4.2 -1.48 -5.6 c-0.36 -0.48 -0.72 -0.8 -0.72 -0.92 c0 -0.36 0.24 -0.88 0.8 -0.88 l2.96 0 c0.4 0 0.68 0.04 0.96 0.36 l18.64 19.72 l0 -15.04 c0 -2.84 -1.8 -3.16 -3.88 -3.68 c-0.32 -0.08 -0.16 -1.36 0.24 -1.36 l9.48 0 c0.32 0 0.52 1.28 0.2 1.36 c-1.76 0.52 -3.28 0.84 -3.28 3.68 l0 15.56 c0 2.64 0.08 5.56 0.48 7.04 c0.16 0.6 -0.48 0.76 -1.12 0.76 z M92.60000000000001 40.08 c-0.4 0.04 -0.56 -1.36 -0.24 -1.44 c2.32 -0.6 4.12 -0.96 4.12 -3.92 l0 -17.76 c0 -2.56 -1.64 -3.24 -3.36 -3.68 c-0.32 -0.08 -0.12 -1.4 0.2 -1.36 c1.64 0.2 3.32 0.24 5 0.24 c3.12 0 5.92 -0.24 7.96 -0.24 c9.68 0 14.92 5.76 14.92 13.48 c0 7.68 -5.24 14.68 -14.96 14.68 c-1.92 0 -4.4 -0.24 -7.36 -0.24 c-2.48 0 -4.44 0.04 -6.28 0.24 z M106.64 37.96 c6.52 0 9.76 -3.52 9.76 -10.28 c0 -7.64 -4.16 -13.64 -11.36 -13.64 c-2.84 0 -3.76 0.88 -3.76 2.92 l0 17.76 c0 2.16 1.48 3.24 5.36 3.24 z M125.2 40 c-0.32 0 -0.56 -1.32 -0.24 -1.36 c2.04 -0.28 3.32 -1.08 3.32 -3.6 l0 -18.08 c0 -2.52 -1.28 -3.32 -3.32 -3.6 c-0.32 -0.04 -0.08 -1.36 0.24 -1.36 l10.96 0 c0.32 0 0.56 1.32 0.24 1.36 c-1.72 0.24 -3.32 0.8 -3.32 3.6 l0 18.08 c0 2.8 1.6 3.36 3.32 3.6 c0.32 0.04 0.08 1.36 -0.24 1.36 l-10.96 0 z M147.36 40.08 c-0.4 0.04 -0.56 -1.36 -0.24 -1.44 c2.32 -0.6 4.12 -0.96 4.12 -3.92 l0 -17.76 c0 -2.56 -1.64 -3.24 -3.36 -3.68 c-0.32 -0.08 -0.12 -1.4 0.2 -1.36 c2.92 0.32 7.96 0.24 10.4 0.24 c3.64 0 6.28 -0.16 9.56 -0.24 c0.96 0 0.96 0.64 0.76 1.56 l-0.96 3.8 c-0.12 0.56 -1.12 0.56 -1.28 0 c-0.6 -1.96 -1.8 -3.08 -6.8 -3.08 c-2.8 0 -3.72 0.72 -3.72 2.8 l0 6.92 c0 1.04 0.52 1.24 1.32 1.24 l0.88 0 c3.24 0 6.04 -0.32 7.68 -1.8 c0.4 -0.36 1.28 -0.28 0.92 0.52 l-2.28 5.04 c-0.32 0.72 -0.92 0.64 -1.36 0.04 c-0.92 -1.28 -2.96 -1.8 -5.28 -1.8 l-0.56 0 c-0.8 0 -1.32 0.2 -1.32 1.24 l0 6.32 c0 2.96 1.84 3.2 5.12 3.92 c0.36 0.08 0.16 1.48 -0.24 1.44 c-2.88 -0.2 -4.96 -0.24 -7.28 -0.24 s-4.4 0.04 -6.28 0.24 z M172.72 40 c-0.32 0 -0.56 -1.32 -0.24 -1.36 c2.04 -0.28 3.32 -1.08 3.32 -3.6 l0 -18.08 c0 -2.52 -1.28 -3.32 -3.32 -3.6 c-0.32 -0.04 -0.08 -1.36 0.24 -1.36 l10.96 0 c0.32 0 0.56 1.32 0.24 1.36 c-1.72 0.24 -3.32 0.8 -3.32 3.6 l0 18.08 c0 2.8 1.6 3.36 3.32 3.6 c0.32 0.04 0.08 1.36 -0.24 1.36 l-10.96 0 z M213.8 40.4 c-0.68 0 -1.04 -0.28 -1.48 -0.76 l-19.04 -19.92 l0 15.2 c0 2.72 1.6 3.16 3.88 3.72 c0.32 0.08 0.16 1.36 -0.24 1.36 l-9.48 0 c-0.32 0 -0.56 -1.24 -0.2 -1.36 c1.68 -0.56 3.28 -0.88 3.28 -3.72 l0 -15.52 c0 -2.84 -0.44 -4.2 -1.48 -5.6 c-0.36 -0.48 -0.72 -0.8 -0.72 -0.92 c0 -0.36 0.24 -0.88 0.8 -0.88 l2.96 0 c0.4 0 0.68 0.04 0.96 0.36 l18.64 19.72 l0 -15.04 c0 -2.84 -1.8 -3.16 -3.88 -3.68 c-0.32 -0.08 -0.16 -1.36 0.24 -1.36 l9.48 0 c0.32 0 0.52 1.28 0.2 1.36 c-1.76 0.52 -3.28 0.84 -3.28 3.68 l0 15.56 c0 2.64 0.08 5.56 0.48 7.04 c0.16 0.6 -0.48 0.76 -1.12 0.76 z M250.36 38.64 c0.56 0.08 0.4 1.36 -0.08 1.36 l-10.56 0 c-0.52 0 -0.56 -1.28 -0.12 -1.36 c1.48 -0.28 3.08 -0.8 1.6 -4.24 l-0.44 -1 c-0.4 -0.96 -1.08 -1.04 -2.28 -1.04 l-8.16 0 c-1.2 0 -1.88 0.08 -2.28 1.04 l-0.4 1 c-1.4 3.44 0.12 3.96 2.04 4.24 c0.52 0.08 0.4 1.36 -0.12 1.36 l-8.64 0 c-0.48 0 -0.6 -1.28 -0.12 -1.36 c1.64 -0.28 2.6 -0.84 4.08 -4.24 l6.76 -15.52 c1.56 -3.52 2.04 -5.16 2.04 -6.68 c0 -0.24 2.8 -0.88 2.92 -0.6 l9.76 22.76 c1.44 3.4 2.4 4.04 4 4.28 z M238.20000000000002 30.119999999999997 c0.56 0 1.16 -0.08 0.92 -0.64 l-4.68 -11.2 l-4.72 11.2 c-0.24 0.56 0.36 0.64 0.92 0.64 l7.56 0 z M279.84000000000003 40.4 c-0.68 0 -1.04 -0.28 -1.48 -0.76 l-19.04 -19.92 l0 15.2 c0 2.72 1.6 3.16 3.88 3.72 c0.32 0.08 0.16 1.36 -0.24 1.36 l-9.48 0 c-0.32 0 -0.56 -1.24 -0.2 -1.36 c1.68 -0.56 3.28 -0.88 3.28 -3.72 l0 -15.52 c0 -2.84 -0.44 -4.2 -1.48 -5.6 c-0.36 -0.48 -0.72 -0.8 -0.72 -0.92 c0 -0.36 0.24 -0.88 0.8 -0.88 l2.96 0 c0.4 0 0.68 0.04 0.96 0.36 l18.64 19.72 l0 -15.04 c0 -2.84 -1.8 -3.16 -3.88 -3.68 c-0.32 -0.08 -0.16 -1.36 0.24 -1.36 l9.48 0 c0.32 0 0.52 1.28 0.2 1.36 c-1.76 0.52 -3.28 0.84 -3.28 3.68 l0 15.56 c0 2.64 0.08 5.56 0.48 7.04 c0.16 0.6 -0.48 0.76 -1.12 0.76 z M303.52000000000004 40.64 c-6.72 0 -15.8 -3.92 -15.8 -14.12 c0 -6.92 4.24 -15.16 15.44 -15.16 c4.64 0 8.64 1.44 8.16 2.84 l-0.52 1.56 c-1.44 4.28 -3 -1.2 -10.12 -1.2 c-5.72 0 -8.52 3.72 -8.52 9.48 c0 9 6.84 12.76 12.32 12.76 c0.72 0 4.36 -0.56 6.44 -1.88 c0.32 -0.2 1.16 0.72 0.92 1.08 c-1.72 2.52 -7.08 4.64 -8.32 4.64 z M315.28000000000003 40.08 c-0.4 0.04 -0.56 -1.36 -0.24 -1.44 c2.32 -0.6 4.12 -0.96 4.12 -3.92 l0 -17.76 c0 -2.56 -1.64 -3.24 -3.36 -3.68 c-0.32 -0.08 -0.12 -1.4 0.2 -1.36 c2.92 0.32 7.96 0.24 10.4 0.24 c3.64 0 6.28 -0.16 9.56 -0.24 c0.96 0 0.96 0.64 0.76 1.56 l-0.96 3.8 c-0.12 0.56 -1.12 0.56 -1.28 0 c-0.6 -1.96 -1.8 -3.08 -6.8 -3.08 c-2.8 0 -3.72 0.72 -3.72 2.8 l0 6.52 c0 1.04 0.52 1.24 1.32 1.24 l0.88 0 c3.24 0 6.04 -0.32 7.68 -1.8 c0.4 -0.36 1.28 -0.28 0.92 0.52 l-2.28 5.04 c-0.32 0.72 -0.92 0.64 -1.36 0.04 c-0.92 -1.28 -2.96 -1.8 -5.28 -1.8 l-0.56 0 c-0.8 0 -1.32 0.2 -1.32 1.24 l0 6.72 c0 2.28 0.96 3.12 4.28 3.12 c6.04 0 8.44 -2.76 9.4 -4.28 c0.28 -0.44 1.36 -0.24 1.36 0.44 c0 2.04 -1.72 6.08 -4.24 6.08 c-2.24 -0.12 -4.44 -0.24 -7.8 -0.24 c-3.68 0 -8.04 -0.12 -11.68 0.24 z"></path></g><g id="SvgjsG1084" featureKey="sloganFeature-0" transform="matrix(0.44630496037958534,0,0,0.44630496037958534,97.18495787760926,54.45907420430056)" fill="#ffffff"><path d="M1.8262 20 l0 -14.111 l5.1074 0 c4.502 0 6.7285 2.832 6.7285 7.0508 c0 4.2285 -2.2266 7.0605 -6.7285 7.0605 l-5.1074 0 z M4.7559 17.4121 l2.0313 0 c2.5977 0 3.7891 -1.6211 3.7891 -4.4727 s-1.1914 -4.4727 -3.7891 -4.4727 l-2.0313 0 l0 8.9453 z M24.135976562499998 8.467 l-5.2344 0 l0 3.2031 l4.6387 0 l0 2.5488 l-4.6387 0 l0 3.1934 l5.2344 0 l0 2.5879 l-8.1836 0 l0 -14.111 l8.1836 0 l0 2.5781 z M32.949246875 20.19531 c-4.1504 0 -7.2168 -2.8223 -7.2168 -7.2559 s3.0664 -7.2461 7.2168 -7.2461 c3.1445 0 5.6641 1.6113 6.6699 4.2871 l-2.7344 0.99609 c-0.625 -1.6406 -2.1191 -2.5879 -3.9355 -2.5879 c-2.4316 0 -4.2969 1.6992 -4.2969 4.5508 s1.8652 4.5605 4.2969 4.5605 c1.8164 0 3.3105 -0.95703 3.9355 -2.5977 l2.7344 0.99609 c-1.0059 2.6758 -3.5254 4.2969 -6.6699 4.2969 z M49.7512109375 8.467 l-5.2344 0 l0 3.2031 l4.6387 0 l0 2.5488 l-4.6387 0 l0 3.1934 l5.2344 0 l0 2.5879 l-8.1836 0 l0 -14.111 l8.1836 0 l0 2.5781 z M61.95328125 5.888999999999999 l2.9199 0 l0 14.111 l-3.3887 0 l-6.25 -10.088 l0 10.088 l-2.9199 0 l0 -14.111 l3.3496 0 l6.2891 10.029 l0 -10.029 z M76.2551171875 5.888999999999999 l0 2.5781 l-3.3496 0 l0 11.533 l-2.9004 0 l0 -11.533 l-3.3691 0 l0 -2.5781 l9.6191 0 z M85.46870625 20 l-3.6719 -6.2109 l-0.84961 0 l0 6.2109 l-2.9297 0 l0 -14.111 l5.1172 0 c3.1934 0 4.541 1.8848 4.541 4.2188 c0 1.8945 -1.0742 3.125 -2.9883 3.5352 l4.248 6.3574 l-3.4668 0 z M80.94730625 8.32 l0 3.3691 l1.7285 0 c1.5625 0 2.1973 -0.66406 2.1973 -1.6797 c0 -1.0059 -0.63477 -1.6895 -2.1973 -1.6895 l-1.7285 0 z M100.0737109375 20 l-1.0254 -2.9102 l-5.9277 0 l-1.0254 2.9102 l-2.998 0 l5.1953 -14.111 l3.584 0 l5.1953 14.111 l-2.998 0 z M93.9795109375 14.6387 l4.209 0 l-2.0996 -5.9863 z M107.66605625 17.4121 l4.4238 0 l0 2.5879 l-7.3535 0 l0 -14.111 l2.9297 0 l0 11.523 z M113.8720984375 20 l0 -14.111 l2.9297 0 l0 14.111 l-2.9297 0 z M124.6777625 20.19531 c-3.0273 0 -5.3906 -1.4551 -5.8203 -4.1016 l3.0273 -0.69336 c0.19531 1.582 1.3574 2.4023 2.9102 2.4023 c1.1914 0 2.1387 -0.52734 2.1289 -1.7188 c-0.0097656 -1.3281 -1.5723 -1.748 -3.291 -2.2754 c-2.0703 -0.64453 -4.2871 -1.4063 -4.2871 -4.0039 c0 -2.627 2.1484 -4.1113 4.9805 -4.1113 c2.4805 0 4.9805 1.0059 5.5469 3.7109 l-2.832 0.70313 c-0.26367 -1.4063 -1.2109 -2.0215 -2.5391 -2.0215 c-1.1816 0 -2.1875 0.48828 -2.1875 1.6504 c0 1.084 1.3867 1.4453 2.9883 1.9238 c2.1289 0.64453 4.6484 1.4648 4.6484 4.2773 c0 2.998 -2.5098 4.2578 -5.2734 4.2578 z M140.3859765625 8.467 l-5.2344 0 l0 3.2031 l4.6387 0 l0 2.5488 l-4.6387 0 l0 3.1934 l5.2344 0 l0 2.5879 l-8.1836 0 l0 -14.111 l8.1836 0 l0 2.5781 z M142.949246875 20 l0 -14.111 l5.1074 0 c4.502 0 6.7285 2.832 6.7285 7.0508 c0 4.2285 -2.2266 7.0605 -6.7285 7.0605 l-5.1074 0 z M145.878946875 17.4121 l2.0313 0 c2.5977 0 3.7891 -1.6211 3.7891 -4.4727 s-1.1914 -4.4727 -3.7891 -4.4727 l-2.0313 0 l0 8.9453 z M167.919934375 20.19531 c-4.0723 0 -7.0703 -2.8125 -7.0703 -7.2168 c0 -4.4629 3.0664 -7.2852 7.2168 -7.2852 c2.7246 0 4.9805 1.2012 6.2109 3.3203 l-2.5684 1.3672 c-0.74219 -1.4453 -2.0703 -2.1387 -3.6426 -2.1387 c-2.4414 0 -4.2773 1.6797 -4.2773 4.668 c0 2.8809 1.7188 4.7363 4.3848 4.7363 c1.8066 0 3.4668 -0.89844 3.8672 -2.959 l-3.8574 0 l0 -2.3535 l6.6309 0 l0 7.666 l-2.3047 0 l0 -1.9531 c-0.9082 1.3379 -2.4316 2.1484 -4.5898 2.1484 z M183.6474890625 20.19531 c-4.1504 0 -7.2168 -2.832 -7.2168 -7.2559 c0 -4.4336 3.0664 -7.2461 7.2168 -7.2461 c4.1406 0 7.207 2.8125 7.207 7.2461 c0 4.4238 -3.0664 7.2559 -7.207 7.2559 z M183.6474890625 17.5098 c2.4316 0 4.2969 -1.709 4.2969 -4.5703 c0 -2.8516 -1.8652 -4.5508 -4.2969 -4.5508 s-4.2969 1.6992 -4.2969 4.5508 c0 2.8613 1.8652 4.5703 4.2969 4.5703 z M202.07053125 5.888999999999999 l3.1152 0 l-5.2148 14.111 l-3.2227 0 l-5.1855 -14.111 l3.1055 0 l3.7012 10.693 z M215.0344140625 8.467 l-5.2344 0 l0 3.2031 l4.6387 0 l0 2.5488 l-4.6387 0 l0 3.1934 l5.2344 0 l0 2.5879 l-8.1836 0 l0 -14.111 l8.1836 0 l0 2.5781 z M225.048784375 20 l-3.6719 -6.2109 l-0.84961 0 l0 6.2109 l-2.9297 0 l0 -14.111 l5.1172 0 c3.1934 0 4.541 1.8848 4.541 4.2188 c0 1.8945 -1.0742 3.125 -2.9883 3.5352 l4.248 6.3574 l-3.4668 0 z M220.527384375 8.32 l0 3.3691 l1.7285 0 c1.5625 0 2.1973 -0.66406 2.1973 -1.6797 c0 -1.0059 -0.63477 -1.6895 -2.1973 -1.6895 l-1.7285 0 z M239.8487890625 5.888999999999999 l2.9199 0 l0 14.111 l-3.3887 0 l-6.25 -10.088 l0 10.088 l-2.9199 0 l0 -14.111 l3.3496 0 l6.2891 10.029 l0 -10.029 z M255.410625 20 l-1.0254 -2.9102 l-5.9277 0 l-1.0254 2.9102 l-2.998 0 l5.1953 -14.111 l3.584 0 l5.1953 14.111 l-2.998 0 z M249.316425 14.6387 l4.209 0 l-2.0996 -5.9863 z M269.7120703125 5.888999999999999 l2.9199 0 l0 14.111 l-3.3887 0 l-6.25 -10.088 l0 10.088 l-2.9199 0 l0 -14.111 l3.3496 0 l6.2891 10.029 l0 -10.029 z M282.08010625 20.19531 c-4.1504 0 -7.2168 -2.8223 -7.2168 -7.2559 s3.0664 -7.2461 7.2168 -7.2461 c3.1445 0 5.6641 1.6113 6.6699 4.2871 l-2.7344 0.99609 c-0.625 -1.6406 -2.1191 -2.5879 -3.9355 -2.5879 c-2.4316 0 -4.2969 1.6992 -4.2969 4.5508 s1.8652 4.5605 4.2969 4.5605 c1.8164 0 3.3105 -0.95703 3.9355 -2.5977 l2.7344 0.99609 c-1.0059 2.6758 -3.5254 4.2969 -6.6699 4.2969 z M298.8820703125 8.467 l-5.2344 0 l0 3.2031 l4.6387 0 l0 2.5488 l-4.6387 0 l0 3.1934 l5.2344 0 l0 2.5879 l-8.1836 0 l0 -14.111 l8.1836 0 l0 2.5781 z M314.3703515625 5.888999999999999 l0 2.5781 l-3.3496 0 l0 11.533 l-2.9004 0 l0 -11.533 l-3.3691 0 l0 -2.5781 l9.6191 0 z M325.576640625 20 l-1.0254 -2.9102 l-5.9277 0 l-1.0254 2.9102 l-2.998 0 l5.1953 -14.111 l3.584 0 l5.1953 14.111 l-2.998 0 z M319.482440625 14.6387 l4.209 0 l-2.0996 -5.9863 z M339.8780859375 5.888999999999999 l2.9199 0 l0 14.111 l-3.3887 0 l-6.25 -10.088 l0 10.088 l-2.9199 0 l0 -14.111 l3.3496 0 l6.2891 10.029 l0 -10.029 z M352.099621875 20.19531 c-4.0723 0 -7.0703 -2.8125 -7.0703 -7.2168 c0 -4.4629 3.0664 -7.2852 7.2168 -7.2852 c2.7246 0 4.9805 1.2012 6.2109 3.3203 l-2.5684 1.3672 c-0.74219 -1.4453 -2.0703 -2.1387 -3.6426 -2.1387 c-2.4414 0 -4.2773 1.6797 -4.2773 4.668 c0 2.8809 1.7188 4.7363 4.3848 4.7363 c1.8066 0 3.4668 -0.89844 3.8672 -2.959 l-3.8574 0 l0 -2.3535 l6.6309 0 l0 7.666 l-2.3047 0 l0 -1.9531 c-0.9082 1.3379 -2.4316 2.1484 -4.5898 2.1484 z M361.5771765625 20 l0 -14.111 l2.9297 0 l0 14.111 l-2.9297 0 z M375.273440625 12.5488 c1.5918 0.43945 2.6563 1.4844 2.6563 3.4961 c0 2.3828 -1.4453 3.9551 -4.4238 3.9551 l-5.8105 0 l0 -14.111 l4.5703 0 c3.0469 0 4.6484 1.4648 4.6484 3.8672 c0 1.2402 -0.53711 2.2559 -1.6406 2.793 z M372.294940625 8.32 l-1.7773 0 l0 3.3203 l1.9043 0 c1.25 0 1.7969 -0.74219 1.7969 -1.6992 c0 -0.9375 -0.61523 -1.6211 -1.9238 -1.6211 z M372.958940625 17.4902 c1.582 0 2.1289 -0.84961 2.1289 -1.7676 c0 -0.9375 -0.53711 -1.8262 -2.1875 -1.8262 l-2.3828 0 l0 3.5938 l2.4414 0 z M383.0127359375 17.4121 l4.4238 0 l0 2.5879 l-7.3535 0 l0 -14.111 l2.9297 0 l0 11.523 z M397.402578125 8.467 l-5.2344 0 l0 3.2031 l4.6387 0 l0 2.5488 l-4.6387 0 l0 3.1934 l5.2344 0 l0 2.5879 l-8.1836 0 l0 -14.111 l8.1836 0 l0 2.5781 z M413.026859375 8.467 l-5.3711 0 l0 3.2031 l4.6387 0 l0 2.5488 l-4.6387 0 l0 5.7813 l-2.9492 0 l0 -14.111 l8.3203 0 l0 2.5781 z M415.0732703125 20 l0 -14.111 l2.9297 0 l0 14.111 l-2.9297 0 z M430.830234375 5.888999999999999 l2.9199 0 l0 14.111 l-3.3887 0 l-6.25 -10.088 l0 10.088 l-2.9199 0 l0 -14.111 l3.3496 0 l6.2891 10.029 l0 -10.029 z M446.3920703125 20 l-1.0254 -2.9102 l-5.9277 0 l-1.0254 2.9102 l-2.998 0 l5.1953 -14.111 l3.584 0 l5.1953 14.111 l-2.998 0 z M440.2978703125 14.6387 l4.209 0 l-2.0996 -5.9863 z M460.693515625 5.888999999999999 l2.9199 0 l0 14.111 l-3.3887 0 l-6.25 -10.088 l0 10.088 l-2.9199 0 l0 -14.111 l3.3496 0 l6.2891 10.029 l0 -10.029 z M473.0615515625 20.19531 c-4.1504 0 -7.2168 -2.8223 -7.2168 -7.2559 s3.0664 -7.2461 7.2168 -7.2461 c3.1445 0 5.6641 1.6113 6.6699 4.2871 l-2.7344 0.99609 c-0.625 -1.6406 -2.1191 -2.5879 -3.9355 -2.5879 c-2.4316 0 -4.2969 1.6992 -4.2969 4.5508 s1.8652 4.5605 4.2969 4.5605 c1.8164 0 3.3105 -0.95703 3.9355 -2.5977 l2.7344 0.99609 c-1.0059 2.6758 -3.5254 4.2969 -6.6699 4.2969 z M489.863515625 8.467 l-5.2344 0 l0 3.2031 l4.6387 0 l0 2.5488 l-4.6387 0 l0 3.1934 l5.2344 0 l0 2.5879 l-8.1836 0 l0 -14.111 l8.1836 0 l0 2.5781 z"></path></g>
			</g>
		</svg>
	