<svg width="41" height="40" viewBox="0 0 41 40" fill="none" xmlns="http://www.w3.org/2000/svg">
<path d="M35.875 11.6667L20.875 3.33337L5.875 11.6667V28.3334L20.875 36.6667L35.875 28.3334V11.6667ZM20.875 7.15004L30.725 12.6167L25.7083 15.4C24.4917 14.1334 22.775 13.3334 20.875 13.3334C18.975 13.3334 17.2583 14.1334 16.0417 15.4L11.025 12.6167L20.875 7.15004ZM19.2083 31.9334L9.20833 26.3834V15.4334L14.425 18.3334C14.275 18.85 14.2083 19.4167 14.2083 20C14.2083 23.1 16.325 25.7167 19.2083 26.45V31.9334ZM17.5417 20C17.5417 18.1667 19.0417 16.6667 20.875 16.6667C22.7083 16.6667 24.2083 18.1667 24.2083 20C24.2083 21.8334 22.7083 23.3334 20.875 23.3334C19.0417 23.3334 17.5417 21.8334 17.5417 20ZM22.5417 31.9334V26.4667C25.425 25.7334 27.5417 23.1167 27.5417 20.0167C27.5417 19.4334 27.475 18.8667 27.325 18.3334L32.5417 15.4334V26.3834L22.5417 31.9334Z" fill="#5B72A8"/>
</svg>
